<?xml version="1.0" encoding="iso-8859-1"?>
<!-- Uploaded to: SVG Repo, www.svgrepo.com, Generator: SVG Repo Mixer Tools -->
<svg height="800px" width="800px" version="1.1" id="Layer_1" xmlns="http://www.w3.org/2000/svg" xmlns:xlink="http://www.w3.org/1999/xlink" 
	 viewBox="0 0 451.277 451.277" xml:space="preserve">
<circle style="fill:#EA8953;" cx="225.638" cy="225.638" r="225.638"/>
<path style="opacity:0.1;enable-background:new    ;" d="M332.869,334.666l-60.646-60.598l-156.08-156.08
	c-10.484,9.496-19.792,19.557-19.792,25.575c0,35.588,31.075,87.019,71.693,130.223c6.018,6.488,12.317,12.74,18.711,18.758
	l0.705,0.658l135.894,135.894c22.668-10.907,43.215-25.507,60.904-42.993l-51.389-51.389V334.666z"/>
<path style="opacity:0.1;enable-background:new    ;" d="M304.098,252.536L198.321,146.759l-48.704-48.751
	c-2.257-2.21-5.735-2.445-8.274-0.564c-3.479,2.586-8.744,6.629-14.433,11.33l267.077,267.077
	c5.285-5.919,10.243-12.13,14.888-18.585l-55.79-55.79L304.098,252.536z"/>
<g>
	<path style="fill:#FFFFFF;" d="M294.997,252.677c-3.76,4.051-7.702,8.194-11.431,11.924c-0.142,0.142-0.263,0.26-0.401,0.398
		l59.016,59.017c4.687-5.591,8.763-10.752,11.431-14.207c1.942-2.514,1.698-6.066-0.547-8.312l-48.98-48.98
		C301.551,249.984,297.432,250.053,294.997,252.677z"/>
	<path style="fill:#FFFFFF;" d="M272.215,274.052c-18.046,5.994-40.8,0.218-60.261-15.563
		c-25.788-20.91-39.966-54.072-34.635-79.333l-61.166-61.166c-10.511,9.486-19.797,19.558-19.797,25.593
		c0,74.675,136.954,219.095,211.212,211.212c5.943-0.631,15.874-9.826,25.284-20.107L272.215,274.052z"/>
	<path style="fill:#FFFFFF;" d="M141.359,97.427c-3.501,2.625-8.758,6.664-14.442,11.325l58.889,58.889
		c0.032-0.032,0.058-0.06,0.091-0.092c3.807-3.808,8.077-7.842,12.252-11.677c2.645-2.431,2.724-6.567,0.184-9.107L149.598,98.03
		C147.376,95.808,143.874,95.542,141.359,97.427z"/>
</g>
</svg>