<svg width="24" height="24" viewBox="0 0 24 24" fill="none" xmlns="http://www.w3.org/2000/svg">
<g clip-path="url(#clip0_1861_2454)">
<path opacity="0.988" fill-rule="evenodd" clip-rule="evenodd" d="M10.8984 -0.0234375C11.6172 -0.0234375 12.336 -0.0234375 13.0547 -0.0234375C17.7315 0.583528 21.0674 3.02103 23.0625 7.28906C23.5376 8.45527 23.8423 9.65841 23.9766 10.8984C23.9766 11.6172 23.9766 12.336 23.9766 13.0547C23.3696 17.7315 20.9321 21.0674 16.6641 23.0625C15.4979 23.5376 14.2948 23.8423 13.0547 23.9766C12.336 23.9766 11.6172 23.9766 10.8984 23.9766C6.22158 23.3695 2.88565 20.932 0.890625 16.6641C0.415496 15.4979 0.110809 14.2947 -0.0234375 13.0547C-0.0234375 12.336 -0.0234375 11.6172 -0.0234375 10.8984C0.583528 6.22167 3.02103 2.88573 7.28906 0.890625C8.45527 0.415496 9.65841 0.110809 10.8984 -0.0234375ZM5.55469 6.53906C9.83597 6.53123 14.1172 6.53906 18.3984 6.5625C19.0316 6.67992 19.4457 7.04709 19.6406 7.66406C19.6719 10.5234 19.6719 13.3828 19.6406 16.2422C19.4662 16.8854 19.0522 17.2682 18.3984 17.3906C14.1172 17.4219 9.83592 17.4219 5.55469 17.3906C4.9215 17.2732 4.50745 16.906 4.3125 16.2891C4.28125 13.4141 4.28125 10.539 4.3125 7.66406C4.51555 7.04653 4.92961 6.67153 5.55469 6.53906Z" fill="#FAFAFA"/>
<path opacity="0.98" fill-rule="evenodd" clip-rule="evenodd" d="M6.67969 7.80465C10.2031 7.75 13.7343 7.74221 17.2734 7.78121C15.5249 9.20223 13.7593 10.6007 11.9766 11.9765C10.201 10.5968 8.43539 9.20617 6.67969 7.80465Z" fill="#FAFAFA"/>
<path opacity="0.986" fill-rule="evenodd" clip-rule="evenodd" d="M5.46094 8.36719C7.52626 9.95536 9.57315 11.5725 11.6016 13.2188C11.8516 13.375 12.1016 13.375 12.3516 13.2188C14.3761 11.5927 16.4073 9.97547 18.4453 8.36719C18.5 10.9296 18.5078 13.492 18.4688 16.0547C18.4297 16.0937 18.3906 16.1328 18.3516 16.1719C14.1016 16.2031 9.85158 16.2031 5.60157 16.1719C5.56252 16.1328 5.52343 16.0937 5.48438 16.0547C5.46094 13.4922 5.45312 10.9297 5.46094 8.36719Z" fill="#FAFAFA"/>
</g>
<defs>
<clipPath id="clip0_1861_2454">
<rect width="24" height="24" fill="white"/>
</clipPath>
</defs>
</svg>
