<svg width="26" height="26" viewBox="0 0 26 26" fill="none" xmlns="http://www.w3.org/2000/svg">
<g clip-path="url(#clip0_1861_2601)">
<path d="M0.771973 13C0.771973 18.3219 4.18447 22.8312 8.89697 24.4969V1.50311C4.18447 3.16874 0.771973 7.67811 0.771973 13Z" fill="#428BC1"/>
<path d="M25.147 13C25.147 7.67811 21.7751 3.16874 17.022 1.50311V24.4969C21.7751 22.8312 25.147 18.3219 25.147 13Z" fill="#ED4C5C"/>
<path d="M8.89697 24.4969C10.1563 24.9438 11.5376 25.1875 12.9595 25.1875C14.3813 25.1875 15.7626 24.9438 17.022 24.4969V1.50313C15.7626 1.05625 14.422 0.8125 12.9595 0.8125C11.497 0.8125 10.1563 1.05625 8.89697 1.50313V24.4969Z" fill="white"/>
</g>
<defs>
<clipPath id="clip0_1861_2601">
<rect width="26" height="26" fill="white"/>
</clipPath>
</defs>
</svg>
