<svg width="26" height="26" viewBox="0 0 26 26" fill="none" xmlns="http://www.w3.org/2000/svg">
<g clip-path="url(#clip0_1861_2535)">
<path d="M12.9594 0.8125C7.63752 0.8125 3.12815 4.225 1.46252 8.9375H24.4563C22.7907 4.225 18.2813 0.8125 12.9594 0.8125Z" fill="#3E4347"/>
<path d="M12.9594 25.1875C18.2813 25.1875 22.7907 21.8156 24.4563 17.0625H1.46252C3.12815 21.8156 7.63752 25.1875 12.9594 25.1875Z" fill="#FFE62E"/>
<path d="M1.46248 8.9375C1.0156 10.1969 0.771851 11.5781 0.771851 13C0.771851 14.4219 1.0156 15.8031 1.46248 17.0625H24.4562C24.9031 15.8031 25.1469 14.4219 25.1469 13C25.1469 11.5781 24.9031 10.1969 24.4562 8.9375H1.46248Z" fill="#ED4C5C"/>
</g>
<defs>
<clipPath id="clip0_1861_2535">
<rect width="26" height="26" fill="white"/>
</clipPath>
</defs>
</svg>
