<svg width="26" height="26" viewBox="0 0 26 26" fill="none" xmlns="http://www.w3.org/2000/svg">
<g clip-path="url(#clip0_1861_2625)">
<path d="M8.93755 24.4969V18.8906L4.75317 21.9781C5.9313 23.075 7.35317 23.9281 8.93755 24.4969ZM17.0625 24.4969C18.6469 23.9281 20.0688 23.075 21.2469 21.9781L17.0625 18.85V24.4969ZM1.50317 17.0625C1.62505 17.4688 1.78755 17.8344 1.99067 18.2406L3.57505 17.0625H1.50317ZM22.425 17.0625L24.0094 18.2406C24.1719 17.875 24.3344 17.4688 24.4969 17.0625H22.425Z" fill="#2A5F9E"/>
<path d="M9.54678 15.4375H1.05615C1.17803 16.0062 1.34053 16.5344 1.50303 17.0625H3.5749L1.99053 18.2406C2.31553 18.9313 2.68115 19.5406 3.12803 20.15L7.3124 17.0625H8.9374V17.875L4.18428 21.3687L4.75303 21.9375L8.9374 18.8906V24.4969C9.46553 24.7 9.99365 24.8219 10.5624 24.9438V15.4375H9.54678ZM24.9437 15.4375H15.4374V24.9438C16.0062 24.8219 16.5343 24.6594 17.0624 24.4969V18.8906L21.2468 21.9375C21.8155 21.4094 22.303 20.8406 22.7905 20.2312L18.4437 17.0625H21.2062L23.6843 18.8906C23.8062 18.6875 23.928 18.4438 24.0093 18.2406L22.4249 17.0625H24.4968C24.6593 16.5344 24.8218 16.0062 24.9437 15.4375Z" fill="white"/>
<path d="M3.12817 20.15C3.45317 20.5969 3.77817 21.0031 4.1438 21.4094L8.93755 17.9156V17.1031H7.31255L3.12817 20.15ZM18.4844 17.0625L22.8313 20.2312C22.9938 20.0281 23.1157 19.825 23.2782 19.6219C23.3188 19.5812 23.3188 19.5406 23.3594 19.5406C23.4813 19.3375 23.6438 19.0938 23.7657 18.8906L21.2063 17.0625H18.4844Z" fill="#ED4C5C"/>
<path d="M17.0625 1.50311V7.10936L21.2469 4.02186C20.0688 2.92499 18.6469 2.07186 17.0625 1.50311ZM8.93755 1.50311C7.35317 2.07186 5.9313 2.92499 4.75317 4.02186L8.93755 7.14999V1.50311ZM24.4969 8.93749C24.375 8.53124 24.2125 8.16561 24.0094 7.75936L22.425 8.93749H24.4969ZM3.57505 8.93749L1.99067 7.75936C1.82817 8.16561 1.66567 8.53124 1.50317 8.93749H3.57505Z" fill="#2A5F9E"/>
<path d="M16.453 10.5625H24.903C24.7812 9.99377 24.6187 9.46565 24.4562 8.93752H22.3843L23.9687 7.7594C23.6437 7.06877 23.278 6.4594 22.8312 5.85002L18.6874 8.93752H17.0624V8.12502L21.8155 4.63127L21.2468 4.06252L17.0624 7.1094V1.50315C16.5343 1.30002 16.0062 1.17815 15.4374 1.05627V10.5625H16.453ZM1.05615 10.5625H10.5624V1.05627C9.99365 1.17815 9.46553 1.34065 8.9374 1.50315V7.1094L4.75303 4.06252C4.18428 4.59065 3.69678 5.1594 3.20928 5.76877L7.55615 8.93752H4.79365L2.31553 7.1094C2.19365 7.31252 2.07178 7.55627 1.99053 7.7594L3.5749 8.93752H1.50303C1.34053 9.46565 1.17803 9.99377 1.05615 10.5625Z" fill="white"/>
<path d="M22.8718 5.85001C22.5468 5.40314 22.2218 4.99689 21.8562 4.59064L17.0624 8.08439V8.89689H18.6874L22.8718 5.85001ZM7.51553 8.93751L3.20928 5.76876C3.04678 5.97189 2.9249 6.17501 2.7624 6.37814C2.72178 6.41876 2.72178 6.45939 2.68115 6.45939C2.55928 6.66251 2.39678 6.90626 2.2749 7.10939L4.75303 8.93751H7.51553Z" fill="#ED4C5C"/>
<path d="M24.9438 10.5625H15.4375V1.05625C14.6656 0.89375 13.8531 0.8125 13 0.8125C12.1469 0.8125 11.3344 0.89375 10.5625 1.05625V10.5625H1.05625C0.89375 11.3344 0.8125 12.1469 0.8125 13C0.8125 13.8531 0.89375 14.6656 1.05625 15.4375H10.5625V24.9438C11.3344 25.1063 12.1469 25.1875 13 25.1875C13.8531 25.1875 14.6656 25.1063 15.4375 24.9438V15.4375H24.9438C25.1063 14.6656 25.1875 13.8531 25.1875 13C25.1875 12.1469 25.1063 11.3344 24.9438 10.5625Z" fill="#ED4C5C"/>
</g>
<defs>
<clipPath id="clip0_1861_2625">
<rect width="26" height="26" fill="white"/>
</clipPath>
</defs>
</svg>
