<svg width="26" height="26" viewBox="0 0 26 26" fill="none" xmlns="http://www.w3.org/2000/svg">
<g clip-path="url(#clip0_1861_2609)">
<path d="M22.75 5.6875H13V8.125H24.1719C23.8062 7.27188 23.3188 6.41875 22.75 5.6875Z" fill="#428BC1"/>
<path d="M13 5.6875H22.75C22.0594 4.75313 21.2469 3.94063 20.3125 3.25H13V5.6875ZM24.1719 8.125H13V10.5625H24.9438C24.7813 9.70937 24.4969 8.89687 24.1719 8.125Z" fill="#F9F9F9"/>
<path d="M1.82803 17.875H24.1718C24.4968 17.1031 24.7812 16.2906 24.9437 15.4375H1.05615C1.21865 16.2906 1.50303 17.1031 1.82803 17.875Z" fill="#428BC1"/>
<path d="M3.25 20.3125H22.75C23.3188 19.5813 23.8062 18.7281 24.1719 17.875H1.82812C2.19375 18.7281 2.68125 19.5813 3.25 20.3125Z" fill="#F9F9F9"/>
<path d="M3.25 20.3125C3.94063 21.2469 4.75313 22.0594 5.6875 22.75H20.3125C21.2469 22.0594 22.0594 21.2469 22.75 20.3125H3.25Z" fill="#428BC1"/>
<path d="M5.6875 22.75C7.71875 24.2938 10.2375 25.1875 13 25.1875C15.7625 25.1875 18.2812 24.2938 20.3125 22.75H5.6875ZM8.125 13V8.125H13V5.6875H8.125V1.82812C7.27187 2.19375 6.41875 2.68125 5.6875 3.25V5.6875H3.25C2.68125 6.41875 2.19375 7.27187 1.82812 8.125H5.6875V13H0.8125C0.8125 13.8531 0.89375 14.6656 1.05625 15.4375H24.9438C25.1063 14.6656 25.1875 13.8531 25.1875 13H8.125Z" fill="#F9F9F9"/>
<path d="M24.9438 10.5625H13V8.125H8.125V13H25.1875C25.1875 12.1469 25.1063 11.3344 24.9438 10.5625ZM13 0.8125C11.2531 0.8125 9.62813 1.17812 8.125 1.82812V5.6875H13V3.25H20.3125C18.2812 1.70625 15.7625 0.8125 13 0.8125ZM5.6875 5.6875V3.25C4.75312 3.94062 3.94062 4.75312 3.25 5.6875H5.6875ZM1.82812 8.125C1.17812 9.62813 0.8125 11.2531 0.8125 13H5.6875V8.125H1.82812Z" fill="#428BC1"/>
</g>
<defs>
<clipPath id="clip0_1861_2609">
<rect width="26" height="26" fill="white"/>
</clipPath>
</defs>
</svg>
