<svg width="40" height="40" viewBox="0 0 40 40" fill="none" xmlns="http://www.w3.org/2000/svg">
<g clip-path="url(#clip0_1861_2460)">
<path d="M30.625 0H9.375C4.19733 0 0 4.19733 0 9.375V30.625C0 35.8027 4.19733 40 9.375 40H30.625C35.8027 40 40 35.8027 40 30.625V9.375C40 4.19733 35.8027 0 30.625 0Z" fill="url(#paint0_radial_1861_2460)"/>
<path d="M30.625 0H9.375C4.19733 0 0 4.19733 0 9.375V30.625C0 35.8027 4.19733 40 9.375 40H30.625C35.8027 40 40 35.8027 40 30.625V9.375C40 4.19733 35.8027 0 30.625 0Z" fill="url(#paint1_radial_1861_2460)"/>
<path d="M20.0012 6.66675C16.3801 6.66675 15.9256 6.68261 14.5034 6.74728C13.084 6.81235 12.115 7.03701 11.2673 7.36675C10.3902 7.70728 9.64636 8.16288 8.90529 8.90421C8.16356 9.64541 7.70796 10.3893 7.36636 11.2659C7.03569 12.1139 6.81076 13.0833 6.74689 14.5021C6.68329 15.9243 6.66663 16.379 6.66663 20.0002C6.66663 23.6214 6.68263 24.0745 6.74716 25.4966C6.81249 26.9161 7.03716 27.885 7.36663 28.7327C7.70743 29.6098 8.16303 30.3537 8.90436 31.0947C9.64529 31.8365 10.3892 32.2931 11.2656 32.6337C12.114 32.9634 13.083 33.1881 14.5022 33.2531C15.9245 33.3178 16.3786 33.3337 19.9996 33.3337C23.621 33.3337 24.0741 33.3178 25.4962 33.2531C26.9157 33.1881 27.8857 32.9634 28.7341 32.6337C29.6108 32.2931 30.3536 31.8365 31.0944 31.0947C31.8361 30.3537 32.2916 29.6098 32.6333 28.7331C32.961 27.885 33.1861 26.9158 33.2528 25.4969C33.3166 24.0747 33.3333 23.6214 33.3333 20.0002C33.3333 16.379 33.3166 15.9246 33.2528 14.5023C33.1861 13.0829 32.961 12.1141 32.6333 11.2663C32.2916 10.3893 31.8361 9.64541 31.0944 8.90421C30.3528 8.16261 29.611 7.70701 28.7333 7.36688C27.8833 7.03701 26.9138 6.81221 25.4944 6.74728C24.0721 6.68261 23.6193 6.66675 19.997 6.66675H20.0012ZM18.805 9.06788C18.805 9.0688 18.8058 9.06955 18.8067 9.06955C19.1613 9.06902 19.5569 9.06955 20.0012 9.06955C23.5613 9.06955 23.9832 9.08235 25.389 9.14621C26.689 9.20568 27.3946 9.42288 27.8646 9.60542C28.4869 9.84701 28.9305 10.1359 29.3969 10.6027C29.8636 11.0694 30.1524 11.5138 30.3946 12.1361C30.5772 12.6054 30.7946 13.311 30.8538 14.611C30.9177 16.0166 30.9316 16.4387 30.9316 19.9971C30.9316 23.5555 30.9177 23.9778 30.8538 25.3833C30.7944 26.6833 30.5772 27.3889 30.3946 27.8583C30.153 28.4806 29.8636 28.9237 29.3969 29.3901C28.9302 29.8568 28.4872 30.1455 27.8646 30.3873C27.3952 30.5706 26.689 30.7873 25.389 30.8468C23.9834 30.9106 23.5613 30.9245 20.0012 30.9245C16.4409 30.9245 16.0189 30.9106 14.6134 30.8468C13.3134 30.7868 12.6078 30.5695 12.1374 30.387C11.5153 30.1453 11.0708 29.8565 10.6041 29.3898C10.1374 28.9231 9.84863 28.4798 9.60636 27.8573C9.42383 27.3878 9.20636 26.6822 9.14716 25.3822C9.08329 23.9766 9.07049 23.5545 9.07049 19.9938C9.07049 16.4333 9.08329 16.0133 9.14716 14.6077C9.20663 13.3077 9.42383 12.6021 9.60636 12.1321C9.84809 11.5098 10.1374 11.0654 10.6042 10.5987C11.0709 10.1321 11.5153 9.84315 12.1376 9.60101C12.6076 9.41768 13.3134 9.20101 14.6134 9.14128C15.8431 9.08569 16.3199 9.06902 18.8033 9.06622C18.8042 9.06622 18.805 9.06696 18.805 9.06788ZM27.1185 11.2831C27.1185 11.2833 27.1184 11.2834 27.1182 11.2834C26.235 11.2836 25.5185 11.9995 25.5185 12.8829C25.5185 13.7662 26.2352 14.4829 27.1185 14.4829C28.0018 14.4829 28.7185 13.7662 28.7185 12.8829C28.7185 11.9996 28.002 11.283 27.1188 11.2829C27.1186 11.2829 27.1185 11.283 27.1185 11.2831ZM20.0012 13.1529C16.2198 13.1529 13.154 16.2187 13.154 20.0002C13.154 23.7817 16.2198 26.8461 20.0012 26.8461C23.7826 26.8461 26.8474 23.7817 26.8474 20.0002C26.8474 16.2189 23.7824 13.1529 20.0009 13.1529H20.0012ZM20.0012 15.5557C22.4557 15.5557 24.4457 17.5454 24.4457 20.0002C24.4457 22.4548 22.4557 24.4447 20.0012 24.4447C17.5465 24.4447 15.5568 22.4548 15.5568 20.0002C15.5568 17.5454 17.5465 15.5557 20.0012 15.5557Z" fill="white"/>
</g>
<defs>
<radialGradient id="paint0_radial_1861_2460" cx="0" cy="0" r="1" gradientUnits="userSpaceOnUse" gradientTransform="translate(10.625 43.0808) rotate(-90) scale(39.643 36.8711)">
<stop stop-color="#FFDD55"/>
<stop offset="0.1" stop-color="#FFDD55"/>
<stop offset="0.5" stop-color="#FF543E"/>
<stop offset="1" stop-color="#C837AB"/>
</radialGradient>
<radialGradient id="paint1_radial_1861_2460" cx="0" cy="0" r="1" gradientUnits="userSpaceOnUse" gradientTransform="translate(-6.70016 2.88141) rotate(78.681) scale(17.7206 73.045)">
<stop stop-color="#3771C8"/>
<stop offset="0.128" stop-color="#3771C8"/>
<stop offset="1" stop-color="#6600FF" stop-opacity="0"/>
</radialGradient>
<clipPath id="clip0_1861_2460">
<rect width="40" height="40" rx="16" fill="white"/>
</clipPath>
</defs>
</svg>
