<svg width="26" height="26" viewBox="0 0 26 26" fill="none" xmlns="http://www.w3.org/2000/svg">
<g clip-path="url(#clip0_1861_2617)">
<path d="M0.690674 13C0.690674 18.3219 4.10317 22.8313 8.81567 24.4969V1.50313C4.10317 3.16875 0.690674 7.67813 0.690674 13Z" fill="#75A843"/>
<path d="M25.0657 13C25.0657 7.67813 21.6532 3.16875 16.9407 1.50313V24.4969C21.6938 22.8313 25.0657 18.3219 25.0657 13Z" fill="#ED4C5C"/>
<path d="M8.81567 24.4969C10.075 24.9438 11.4563 25.1875 12.8782 25.1875C14.3 25.1875 15.6813 24.9438 16.9407 24.4969V1.50313C15.6813 1.05625 14.3 0.8125 12.8782 0.8125C11.4563 0.8125 10.075 1.05625 8.81567 1.50313V24.4969Z" fill="white"/>
</g>
<defs>
<clipPath id="clip0_1861_2617">
<rect width="26" height="26" fill="white"/>
</clipPath>
</defs>
</svg>
