<svg width="26" height="26" viewBox="0 0 26 26" fill="none" xmlns="http://www.w3.org/2000/svg">
<g clip-path="url(#clip0_1861_2621)">
<path d="M24.8625 15.8438V10.1562C23.5625 4.79375 18.7687 0.8125 13 0.8125C7.2312 0.8125 2.43745 4.79375 1.13745 10.1562V15.8438C2.43745 21.2062 7.2312 25.1875 13 25.1875C18.7687 25.1875 23.5625 21.2062 24.8625 15.8438Z" fill="#C94747"/>
<path opacity="0.15" d="M24.8625 15.8438V10.1562C23.5625 4.79375 18.7687 0.8125 13 0.8125C7.2312 0.8125 2.43745 4.79375 1.13745 10.1562V15.8438C2.43745 21.2062 7.2312 25.1875 13 25.1875C18.7687 25.1875 23.5625 21.2062 24.8625 15.8438Z" fill="#C28FEF"/>
<path d="M0.8125 13C0.8125 13.975 0.934375 14.95 1.1375 15.8438H24.8219C25.025 14.95 25.1469 13.975 25.1469 13C25.1469 12.025 25.025 11.05 24.8219 10.1562H1.1375C0.934375 11.05 0.8125 12.025 0.8125 13Z" fill="white"/>
</g>
<defs>
<clipPath id="clip0_1861_2621">
<rect width="26" height="26" fill="white"/>
</clipPath>
</defs>
</svg>
