<svg width="24" height="24" viewBox="0 0 24 24" fill="none" xmlns="http://www.w3.org/2000/svg">
<path opacity="0.99" fill-rule="evenodd" clip-rule="evenodd" d="M10.8984 -0.0234375C11.6172 -0.0234375 12.336 -0.0234375 13.0547 -0.0234375C17.2568 0.486933 20.4208 2.56506 22.5469 6.21094C23.3295 7.68614 23.806 9.24862 23.9766 10.8984C23.9766 11.6172 23.9766 12.336 23.9766 13.0547C23.4662 17.2568 21.3881 20.4208 17.7422 22.5469C16.267 23.3295 14.7045 23.806 13.0547 23.9766C12.336 23.9766 11.6172 23.9766 10.8984 23.9766C6.69637 23.4662 3.53232 21.3881 1.40625 17.7422C0.623686 16.267 0.147122 14.7045 -0.0234375 13.0547C-0.0234375 12.336 -0.0234375 11.6172 -0.0234375 10.8984C0.486914 6.69642 2.56504 3.53237 6.21094 1.40625C7.68614 0.623686 9.24862 0.147122 10.8984 -0.0234375ZM11.4609 4.19531C14.1883 4.12459 16.1649 5.29645 17.3906 7.71094C17.963 9.0015 18.0255 10.314 17.5781 11.6484C17.2266 12.5546 16.7891 13.414 16.2656 14.2266C14.9865 16.17 13.5569 17.9981 11.9766 19.7109C10.0618 17.6624 8.39775 15.4281 6.98438 13.0078C5.5642 10.4813 5.81419 8.13755 7.73438 5.97656C8.77275 4.956 10.0149 4.36223 11.4609 4.19531Z" fill="#FAFAFA"/>
</svg>
