<svg width="1299" height="688" viewBox="0 0 1299 688" fill="none" xmlns="http://www.w3.org/2000/svg">
<path d="M612 295.158C612 442.703 508.329 565.305 373.44 586.923C374.578 580.375 374.897 573.593 374.131 566.722C374.131 566.722 373.325 559.491 372.271 550.027C420.162 541.462 463.4 518.394 497.671 485.219C495.614 483.423 493.565 481.093 491.545 478.001C482.443 464.059 494.345 450.226 494.345 438.034C494.345 426.075 471.378 427.059 470.537 419.138C467.635 391.708 486.572 391.335 496.668 380.736C506.764 370.138 486.689 346.043 473.722 347.598C460.667 349.061 423.92 341.269 427.278 311.755C431.369 275.808 383.651 278.98 376.818 262.202C366.857 237.745 383.416 207.748 405.014 200.933C435.606 191.28 465.743 165.082 463.389 135.918C460.722 102.887 446.48 73.0984 423.023 55.4027C398.613 45.0217 372.292 38.6025 344.754 36.9827C320.177 38.0031 298.569 43.7368 299.555 55.5486C301.972 84.4944 380.383 92.0128 367.225 119.071C360.365 133.177 308.881 153.085 318.496 174.078C324.75 187.73 340.141 176.03 334.395 202.239C331.751 214.298 321.678 236.957 306.187 238.419C290.346 239.972 277.155 195.918 234.037 194.474C213.653 193.789 184.936 227.86 209.32 252.032C224.086 266.669 251.795 234.439 259.973 259.616C265.736 277.358 259.197 314.628 286.094 330.204C295.899 335.882 310.93 340.832 325.796 348.762C303.731 353.492 276.619 362.318 244.604 375.264L217.63 367.793C228.922 357.925 247.269 350.979 242.653 329.417C235.872 297.739 183.475 309.686 147.352 271.767C136.27 260.136 112.633 221.512 112.73 175.109C94.7239 211.013 84.4759 251.844 84.4759 295.159C84.4759 308.492 85.4449 321.593 87.3079 334.389C86.8829 334.381 86.4629 334.304 86.0389 334.304C74.6629 334.304 63.5059 336.813 53.1659 341.556C50.8819 326.435 49.6629 310.947 49.6629 295.161C49.6629 132.412 175.796 2.49666e-08 330.83 2.49666e-08C485.867 -0.00209948 612 132.41 612 295.158ZM401.089 381.188L332.419 414.323L333.484 398.616L377.97 377.534C371.625 377.058 365.051 376.876 358.487 376.876C333.908 376.876 292.381 389.937 246.451 409.075L99.1439 368.287C85.3779 364.475 70.7219 366.823 58.6649 374.775L51.4219 379.551C44.3509 384.214 44.2759 395.005 51.2809 399.778L139.83 460.084C118.677 471.44 98.6079 482.974 80.9159 493.989L35.4779 468.736C28.0559 464.611 19.2809 464.122 11.4859 467.399L7.18494 469.209C0.770939 471.904 -1.91606 479.911 1.47394 486.232L26.5049 532.916L26.5159 532.912C17.0719 541.442 11.6899 548.515 11.6899 553.41C11.6899 568.06 28.8639 571.722 44.0019 571.722C71.0019 571.722 427.569 486.019 427.569 408.375C427.567 392.998 417.549 385.308 401.089 381.188ZM250.751 532.781L329.214 503.766C332.67 502.487 336.363 504.906 336.789 508.727L343.668 570.468C345.387 585.896 337.482 600.743 324.064 607.291L316.705 610.881C312.109 613.124 306.657 611.922 303.308 607.93L248.36 542.404C245.685 539.213 246.931 534.194 250.751 532.781Z" fill="#F86F00"/>
<path d="M24.5039 650.184H11.4258L11.3555 643.363H22.5703C24.4922 643.363 26.0977 643.094 27.3867 642.555C28.6758 642.016 29.6484 641.23 30.3047 640.199C30.9844 639.168 31.3242 637.914 31.3242 636.438C31.3242 634.797 31.0078 633.461 30.375 632.43C29.7656 631.398 28.8047 630.648 27.4922 630.18C26.1797 629.688 24.5156 629.441 22.5 629.441H14.5547V673H4.88672V621.812H22.5C25.4062 621.812 27.9961 622.094 30.2695 622.656C32.5664 623.195 34.5117 624.039 36.1055 625.188C37.6992 626.336 38.9062 627.777 39.7266 629.512C40.5703 631.246 40.9922 633.309 40.9922 635.699C40.9922 637.809 40.5 639.754 39.5156 641.535C38.5547 643.293 37.0664 644.723 35.0508 645.824C33.0586 646.926 30.5273 647.559 27.457 647.723L24.5039 650.184ZM24.082 673H8.57812L12.6211 665.406H24.082C26.0039 665.406 27.5859 665.09 28.8281 664.457C30.0938 663.824 31.0312 662.957 31.6406 661.855C32.2734 660.73 32.5898 659.441 32.5898 657.988C32.5898 656.395 32.3086 655.012 31.7461 653.84C31.207 652.668 30.3398 651.766 29.1445 651.133C27.9727 650.5 26.4258 650.184 24.5039 650.184H14.4492L14.5195 643.363H27.3164L29.5312 646C32.4844 646.023 34.8867 646.609 36.7383 647.758C38.6133 648.906 39.9961 650.383 40.8867 652.188C41.7773 653.992 42.2227 655.938 42.2227 658.023C42.2227 661.305 41.5078 664.059 40.0781 666.285C38.6719 668.512 36.6094 670.188 33.8906 671.312C31.1953 672.438 27.9258 673 24.082 673ZM59.2734 659.746L73.125 634.961H82.4414V673H73.125V648.18L59.2734 673H49.957V634.961H59.2734V659.746ZM107.191 654.859H99.7734V650.43H105.434C106.816 650.43 107.918 650.242 108.738 649.867C109.582 649.492 110.18 648.965 110.531 648.285C110.906 647.605 111.094 646.82 111.094 645.93C111.094 645.133 110.918 644.383 110.566 643.68C110.215 642.953 109.629 642.367 108.809 641.922C107.988 641.453 106.852 641.219 105.398 641.219C104.203 641.219 103.137 641.406 102.199 641.781C101.262 642.156 100.523 642.684 99.9844 643.363C99.4453 644.043 99.1758 644.852 99.1758 645.789H89.8594C89.8594 643.398 90.5391 641.348 91.8984 639.637C93.2812 637.926 95.1211 636.613 97.418 635.699C99.7148 634.762 102.234 634.293 104.977 634.293C107.344 634.293 109.477 634.539 111.375 635.031C113.273 635.5 114.891 636.203 116.227 637.141C117.562 638.078 118.594 639.238 119.32 640.621C120.047 641.98 120.41 643.562 120.41 645.367C120.41 646.656 120.105 647.875 119.496 649.023C118.887 650.172 118.008 651.191 116.859 652.082C115.711 652.949 114.316 653.629 112.676 654.121C111.059 654.613 109.23 654.859 107.191 654.859ZM99.7734 652.328H107.191C109.465 652.328 111.457 652.551 113.168 652.996C114.902 653.418 116.355 654.051 117.527 654.895C118.699 655.738 119.578 656.781 120.164 658.023C120.773 659.242 121.078 660.648 121.078 662.242C121.078 664.047 120.68 665.664 119.883 667.094C119.109 668.5 118.008 669.695 116.578 670.68C115.148 671.664 113.449 672.414 111.48 672.93C109.512 673.445 107.344 673.703 104.977 673.703C102.422 673.703 99.9375 673.281 97.5234 672.438C95.1328 671.594 93.1523 670.293 91.582 668.535C90.0352 666.777 89.2617 664.516 89.2617 661.75H98.5781C98.5781 662.641 98.8477 663.473 99.3867 664.246C99.9258 665.02 100.699 665.641 101.707 666.109C102.738 666.555 103.98 666.777 105.434 666.777C106.91 666.777 108.117 666.543 109.055 666.074C109.992 665.605 110.672 664.984 111.094 664.211C111.539 663.414 111.762 662.582 111.762 661.715C111.762 660.52 111.527 659.559 111.059 658.832C110.613 658.082 109.91 657.531 108.949 657.18C108.012 656.828 106.84 656.652 105.434 656.652H99.7734V652.328ZM126.141 654.367V653.629C126.141 650.84 126.539 648.273 127.336 645.93C128.133 643.562 129.293 641.512 130.816 639.777C132.34 638.043 134.203 636.695 136.406 635.734C138.609 634.75 141.117 634.258 143.93 634.258C146.789 634.258 149.32 634.75 151.523 635.734C153.75 636.695 155.625 638.043 157.148 639.777C158.672 641.512 159.832 643.562 160.629 645.93C161.426 648.273 161.824 650.84 161.824 653.629V654.367C161.824 657.133 161.426 659.699 160.629 662.066C159.832 664.41 158.672 666.461 157.148 668.219C155.625 669.953 153.762 671.301 151.559 672.262C149.355 673.223 146.836 673.703 144 673.703C141.188 673.703 138.668 673.223 136.441 672.262C134.215 671.301 132.34 669.953 130.816 668.219C129.293 666.461 128.133 664.41 127.336 662.066C126.539 659.699 126.141 657.133 126.141 654.367ZM135.422 653.629V654.367C135.422 656.031 135.586 657.59 135.914 659.043C136.242 660.496 136.746 661.773 137.426 662.875C138.105 663.977 138.984 664.844 140.062 665.477C141.164 666.086 142.477 666.391 144 666.391C145.5 666.391 146.789 666.086 147.867 665.477C148.945 664.844 149.824 663.977 150.504 662.875C151.207 661.773 151.723 660.496 152.051 659.043C152.379 657.59 152.543 656.031 152.543 654.367V653.629C152.543 651.988 152.379 650.453 152.051 649.023C151.723 647.57 151.207 646.293 150.504 645.191C149.824 644.066 148.934 643.188 147.832 642.555C146.754 641.898 145.453 641.57 143.93 641.57C142.43 641.57 141.141 641.898 140.062 642.555C138.984 643.188 138.105 644.066 137.426 645.191C136.746 646.293 136.242 647.57 135.914 649.023C135.586 650.453 135.422 651.988 135.422 653.629ZM187.277 656.898H175.219L175.148 650.605H185.062C186.539 650.605 187.746 650.453 188.684 650.148C189.621 649.844 190.312 649.387 190.758 648.777C191.227 648.168 191.461 647.43 191.461 646.562C191.461 645.812 191.32 645.168 191.039 644.629C190.758 644.066 190.336 643.609 189.773 643.258C189.234 642.906 188.543 642.648 187.699 642.484C186.879 642.297 185.918 642.203 184.816 642.203H178.523V673H169.207V634.961H184.816C187.277 634.961 189.492 635.184 191.461 635.629C193.43 636.051 195.105 636.695 196.488 637.562C197.871 638.43 198.926 639.531 199.652 640.867C200.402 642.18 200.777 643.727 200.777 645.508C200.777 646.68 200.52 647.781 200.004 648.812C199.488 649.844 198.727 650.758 197.719 651.555C196.711 652.352 195.469 653.008 193.992 653.523C192.516 654.016 190.828 654.32 188.93 654.438L187.277 656.898ZM187.277 673H172.723L176.168 665.758H187.277C188.637 665.758 189.762 665.594 190.652 665.266C191.543 664.914 192.199 664.41 192.621 663.754C193.066 663.098 193.289 662.301 193.289 661.363C193.289 660.449 193.078 659.664 192.656 659.008C192.258 658.328 191.613 657.812 190.723 657.461C189.855 657.086 188.707 656.898 187.277 656.898H177.68L177.75 650.605H188.895L191.355 653.102C193.887 653.266 195.984 653.781 197.648 654.648C199.312 655.492 200.555 656.57 201.375 657.883C202.195 659.172 202.605 660.59 202.605 662.137C202.605 663.941 202.266 665.523 201.586 666.883C200.906 668.242 199.91 669.379 198.598 670.293C197.285 671.184 195.68 671.863 193.781 672.332C191.883 672.777 189.715 673 187.277 673ZM215.965 646.668H227.074C230.449 646.668 233.32 647.23 235.688 648.355C238.078 649.457 239.895 651.004 241.137 652.996C242.402 654.965 243.035 657.25 243.035 659.852C243.035 661.727 242.672 663.473 241.945 665.09C241.242 666.684 240.211 668.078 238.852 669.273C237.492 670.445 235.816 671.359 233.824 672.016C231.855 672.672 229.605 673 227.074 673H209.988V634.961H219.305V665.723H227.074C228.691 665.723 229.98 665.453 230.941 664.914C231.926 664.352 232.629 663.637 233.051 662.77C233.496 661.879 233.719 660.93 233.719 659.922C233.719 658.891 233.496 657.93 233.051 657.039C232.629 656.125 231.926 655.387 230.941 654.824C229.98 654.262 228.691 653.98 227.074 653.98H215.965V646.668ZM258.645 634.961V673H249.328V634.961H258.645ZM277.523 659.746L291.375 634.961H300.691V673H291.375V648.18L277.523 673H268.207V634.961H277.523V659.746ZM289.652 620.02H296.402C296.402 621.988 295.922 623.734 294.961 625.258C294 626.781 292.629 627.977 290.848 628.844C289.09 629.688 287.004 630.109 284.59 630.109C280.957 630.109 278.074 629.172 275.941 627.297C273.809 625.422 272.742 622.996 272.742 620.02H279.492C279.492 621.262 279.879 622.375 280.652 623.359C281.426 624.344 282.738 624.836 284.59 624.836C286.441 624.836 287.742 624.344 288.492 623.359C289.266 622.375 289.652 621.262 289.652 620.02ZM327.129 673V634.961H336.445V665.688H350.262V634.961H359.613V673H327.129ZM365.027 665.723L364.359 684.285H355.746V673H351.352V665.723H365.027ZM387.738 673.703C384.855 673.703 382.266 673.234 379.969 672.297C377.672 671.359 375.715 670.059 374.098 668.395C372.504 666.707 371.273 664.75 370.406 662.523C369.562 660.273 369.141 657.859 369.141 655.281V653.875C369.141 650.945 369.562 648.285 370.406 645.895C371.25 643.48 372.445 641.406 373.992 639.672C375.539 637.938 377.391 636.602 379.547 635.664C381.703 634.727 384.082 634.258 386.684 634.258C389.379 634.258 391.758 634.715 393.82 635.629C395.883 636.52 397.605 637.785 398.988 639.426C400.371 641.066 401.414 643.035 402.117 645.332C402.82 647.605 403.172 650.125 403.172 652.891V656.793H373.359V650.395H394.031V649.691C393.984 648.215 393.703 646.867 393.188 645.648C392.672 644.406 391.875 643.422 390.797 642.695C389.719 641.945 388.324 641.57 386.613 641.57C385.23 641.57 384.023 641.875 382.992 642.484C381.984 643.07 381.141 643.914 380.461 645.016C379.805 646.094 379.312 647.383 378.984 648.883C378.656 650.383 378.492 652.047 378.492 653.875V655.281C378.492 656.875 378.703 658.352 379.125 659.711C379.57 661.07 380.215 662.254 381.059 663.262C381.926 664.246 382.957 665.02 384.152 665.582C385.371 666.121 386.754 666.391 388.301 666.391C390.246 666.391 392.004 666.016 393.574 665.266C395.168 664.492 396.551 663.355 397.723 661.855L402.398 666.707C401.602 667.879 400.523 669.004 399.164 670.082C397.828 671.16 396.211 672.039 394.312 672.719C392.414 673.375 390.223 673.703 387.738 673.703ZM435.375 650.57V657.848H415.863V650.57H435.375ZM418.781 634.961V673H409.465V634.961H418.781ZM441.879 634.961V673H432.527V634.961H441.879ZM468.773 634.961V673H459.457V634.961H468.773ZM481.148 634.961V642.203H447.293V634.961H481.148ZM495.879 642.273V687.625H486.562V634.961H495.176L495.879 642.273ZM520.312 653.594V654.332C520.312 657.098 519.984 659.664 519.328 662.031C518.695 664.375 517.758 666.426 516.516 668.184C515.273 669.918 513.727 671.277 511.875 672.262C510.047 673.223 507.938 673.703 505.547 673.703C503.203 673.703 501.164 673.258 499.43 672.367C497.695 671.453 496.23 670.164 495.035 668.5C493.84 666.836 492.879 664.902 492.152 662.699C491.449 660.473 490.922 658.047 490.57 655.422V653.066C490.922 650.277 491.449 647.746 492.152 645.473C492.879 643.176 493.84 641.195 495.035 639.531C496.23 637.844 497.684 636.543 499.395 635.629C501.129 634.715 503.156 634.258 505.477 634.258C507.891 634.258 510.012 634.715 511.84 635.629C513.691 636.543 515.25 637.855 516.516 639.566C517.781 641.277 518.73 643.316 519.363 645.684C519.996 648.051 520.312 650.688 520.312 653.594ZM510.996 654.332V653.594C510.996 651.906 510.844 650.348 510.539 648.918C510.234 647.465 509.766 646.199 509.133 645.121C508.5 644.02 507.68 643.164 506.672 642.555C505.664 641.945 504.445 641.641 503.016 641.641C501.586 641.641 500.355 641.875 499.324 642.344C498.293 642.812 497.449 643.48 496.793 644.348C496.137 645.215 495.621 646.246 495.246 647.441C494.895 648.613 494.66 649.914 494.543 651.344V657.18C494.754 658.914 495.164 660.473 495.773 661.855C496.383 663.238 497.273 664.34 498.445 665.16C499.641 665.98 501.188 666.391 503.086 666.391C504.516 666.391 505.734 666.074 506.742 665.441C507.75 664.809 508.57 663.941 509.203 662.84C509.836 661.715 510.293 660.426 510.574 658.973C510.855 657.52 510.996 655.973 510.996 654.332Z" fill="black"/>
<path d="M586.352 499.375H614.242L660.883 627.812L707.406 499.375H735.414L672.016 670H649.633L586.352 499.375ZM572.289 499.375H599.594L604.516 617.383V670H572.289V499.375ZM722.055 499.375H749.477V670H717.25V617.383L722.055 499.375ZM811.234 625.82L857.406 543.203H888.461V670H857.406V587.266L811.234 670H780.18V543.203H811.234V625.82ZM1003.19 595.234V619.492H938.148V595.234H1003.19ZM947.875 543.203V670H916.82V543.203H947.875ZM1024.87 543.203V670H993.695V543.203H1024.87ZM1105.02 647.969C1109.4 647.969 1113.3 647.109 1116.74 645.391C1120.18 643.672 1122.91 641.25 1124.95 638.125C1127.05 635 1128.19 631.367 1128.34 627.227H1157.52C1157.37 635.82 1154.95 643.516 1150.26 650.312C1145.57 657.109 1139.32 662.5 1131.51 666.484C1123.77 670.391 1115.1 672.344 1105.49 672.344C1095.73 672.344 1087.21 670.703 1079.95 667.422C1072.68 664.141 1066.62 659.57 1061.78 653.711C1057.02 647.852 1053.42 641.055 1051 633.32C1048.66 625.586 1047.48 617.305 1047.48 608.477V604.727C1047.48 595.898 1048.66 587.617 1051 579.883C1053.42 572.148 1057.02 565.352 1061.78 559.492C1066.62 553.633 1072.68 549.062 1079.95 545.781C1087.21 542.5 1095.69 540.859 1105.38 540.859C1115.61 540.859 1124.59 542.852 1132.33 546.836C1140.14 550.82 1146.23 556.445 1150.61 563.711C1155.06 570.977 1157.37 579.531 1157.52 589.375H1128.34C1128.19 584.844 1127.17 580.781 1125.3 577.188C1123.42 573.594 1120.77 570.703 1117.33 568.516C1113.89 566.328 1109.71 565.234 1104.79 565.234C1099.55 565.234 1095.18 566.328 1091.66 568.516C1088.23 570.703 1085.53 573.711 1083.58 577.539C1081.7 581.289 1080.38 585.508 1079.59 590.195C1078.89 594.805 1078.54 599.648 1078.54 604.727V608.477C1078.54 613.633 1078.89 618.555 1079.59 623.242C1080.38 627.93 1081.7 632.148 1083.58 635.898C1085.53 639.57 1088.23 642.5 1091.66 644.688C1095.18 646.875 1099.63 647.969 1105.02 647.969ZM1211.2 543.203V670H1180.26V543.203H1211.2ZM1293.81 543.203L1237.91 621.016H1204.98L1201.12 592.656H1223.97L1254.79 543.203H1293.81ZM1256.66 670L1221.98 615.625L1247.76 599.453L1297.8 670H1256.66Z" fill="black"/>
</svg>
