<svg width="26" height="26" viewBox="0 0 26 26" fill="none" xmlns="http://www.w3.org/2000/svg">
<g clip-path="url(#clip0_1861_2657)">
<path d="M13 0.8125C7.67817 0.8125 3.1688 4.18438 1.50317 8.9375H24.4969C22.8313 4.18438 18.3219 0.8125 13 0.8125Z" fill="#ED4C5C"/>
<path d="M13 25.1875C18.3219 25.1875 22.8313 21.8156 24.4969 17.0625H1.50317C3.1688 21.8156 7.67817 25.1875 13 25.1875Z" fill="#428BC1"/>
<path d="M1.50313 8.9375C1.05625 10.1969 0.8125 11.5781 0.8125 13C0.8125 14.4219 1.05625 15.8031 1.50313 17.0625H24.4969C24.9438 15.8031 25.1875 14.4219 25.1875 13C25.1875 11.5781 24.9438 10.1969 24.4969 8.9375H1.50313Z" fill="white"/>
</g>
<defs>
<clipPath id="clip0_1861_2657">
<rect width="26" height="26" fill="white"/>
</clipPath>
</defs>
</svg>
