<svg width="75" height="75" viewBox="0 0 75 75" fill="none" xmlns="http://www.w3.org/2000/svg">
<g clip-path="url(#clip0_1861_2587)">
<path d="M75 36.1713C75 54.2528 62.2952 69.2776 45.7647 71.9268C45.9042 71.1244 45.9433 70.2933 45.8494 69.4512C45.8494 69.4512 45.7506 68.5651 45.6214 67.4053C51.4904 66.3556 56.7892 63.5287 60.9891 59.4631C60.737 59.243 60.4859 58.9575 60.2384 58.5786C59.1229 56.87 60.5815 55.1748 60.5815 53.6806C60.5815 52.2151 57.7669 52.3357 57.6638 51.365C57.3082 48.0034 59.6289 47.9577 60.8662 46.6588C62.1034 45.36 59.6433 42.4072 58.0542 42.5978C56.4543 42.7771 51.951 41.8222 52.3625 38.2053C52.8638 33.8 47.0161 34.1887 46.1787 32.1326C44.958 29.1354 46.9873 25.4593 49.6341 24.6241C53.3831 23.4412 57.0763 20.2306 56.7879 16.6566C56.461 12.6087 54.7157 8.95814 51.8411 6.78955C48.8496 5.51736 45.624 4.7307 42.2493 4.53219C39.2374 4.65724 36.5893 5.3599 36.7102 6.80743C37.0064 10.3547 46.6156 11.2761 45.0031 14.592C44.1624 16.3207 37.8531 18.7604 39.0314 21.3331C39.7978 23.0061 41.6839 21.5723 40.9798 24.7842C40.6558 26.262 39.4213 29.0388 37.5229 29.218C35.5816 29.4083 33.9651 24.0096 28.681 23.8326C26.183 23.7487 22.6637 27.924 25.652 30.8863C27.4615 32.68 30.8572 28.7303 31.8594 31.8157C32.5657 33.99 31.7643 38.5574 35.0605 40.4662C36.2621 41.162 38.1042 41.7686 39.926 42.7404C37.2219 43.3201 33.8994 44.4017 29.976 45.9882L26.6703 45.0727C28.0542 43.8634 30.3026 43.0121 29.7369 40.3697C28.9059 36.4876 22.4847 37.9517 18.0578 33.3048C16.6998 31.8794 13.8031 27.1461 13.815 21.4594C11.6083 25.8594 10.3524 30.8632 10.3524 36.1714C10.3524 37.8054 10.4712 39.4109 10.6995 40.979C10.6474 40.9781 10.5959 40.9686 10.544 40.9686C9.14987 40.9686 7.78259 41.2761 6.51543 41.8574C6.23553 40.0043 6.08614 38.1063 6.08614 36.1717C6.08614 16.227 21.5436 3.05965e-09 40.5429 3.05965e-09C59.5425 -0.000257289 75 16.2267 75 36.1713ZM49.1531 46.7142L40.7376 50.7749L40.8681 48.85L46.3199 46.2664C45.5423 46.2081 44.7366 46.1858 43.9322 46.1858C40.9201 46.1858 35.831 47.7864 30.2023 50.1317L12.15 45.1332C10.463 44.6661 8.6669 44.9538 7.18933 45.9283L6.3017 46.5136C5.43516 47.085 5.42597 48.4075 6.28442 48.9924L17.136 56.3828C14.5437 57.7745 12.0843 59.188 9.91616 60.5379L4.34778 57.4431C3.43822 56.9376 2.36286 56.8777 1.40759 57.2793L0.880507 57.5011C0.0944777 57.8314 -0.234811 58.8126 0.18063 59.5873L3.24815 65.3083L3.2495 65.3078C2.09214 66.3532 1.43259 67.22 1.43259 67.8198C1.43259 69.6152 3.53724 70.064 5.39239 70.064C8.70121 70.064 52.3982 59.5612 52.3982 50.046C52.3979 48.1615 51.1702 47.2191 49.1531 46.7142ZM30.7293 65.2918L40.3449 61.736C40.7684 61.5793 41.221 61.8757 41.2732 62.344L42.1162 69.9103C42.3268 71.801 41.3581 73.6205 39.7137 74.4229L38.8119 74.8629C38.2486 75.1377 37.5805 74.9904 37.1701 74.5012L30.4363 66.4711C30.1085 66.08 30.2612 65.465 30.7293 65.2918Z" fill="#F86F00"/>
</g>
<defs>
<clipPath id="clip0_1861_2587">
<rect width="75" height="75" fill="white"/>
</clipPath>
</defs>
</svg>
