<svg width="25" height="24" viewBox="0 0 25 24" fill="none" xmlns="http://www.w3.org/2000/svg">
<g clip-path="url(#clip0_1878_455)">
<path opacity="0.8" d="M12.1666 0C5.53921 0 0.166626 5.37258 0.166626 12C0.166626 18.6274 5.53921 24 12.1666 24C18.794 24 24.1666 18.6274 24.1666 12C24.1666 5.37258 18.794 0 12.1666 0ZM7.85413 4.7666C8.10137 4.75202 8.32485 4.8998 8.49427 5.1621L10.1349 8.27342C10.3076 8.6421 10.2095 9.03686 9.95179 9.30028L9.20033 10.0517C9.15395 10.1153 9.12343 10.1869 9.12269 10.2656C9.41087 11.3811 10.285 12.4101 11.0563 13.1177C11.8275 13.8253 12.6565 14.7833 13.7325 15.0102C13.8655 15.0473 14.0285 15.0606 14.1237 14.9722L14.9967 14.083C15.2981 13.8546 15.734 13.7439 16.0558 13.9307H16.0704L19.0308 15.6782C19.4654 15.9506 19.5104 16.4771 19.1993 16.7974L17.1603 18.8203C16.8592 19.1291 16.4591 19.2329 16.0705 19.2334C14.3515 19.1819 12.7273 18.3382 11.3932 17.4712C9.20343 15.8781 7.19477 13.9023 5.93373 11.5151C5.45009 10.5141 4.88195 9.23694 4.93617 8.11966C4.94101 7.69934 5.05473 7.28756 5.35073 7.01664L7.38979 4.97758C7.54863 4.84242 7.70577 4.77536 7.85413 4.7666Z" fill="white"/>
</g>
<defs>
<clipPath id="clip0_1878_455">
<rect width="24" height="24" fill="white" transform="translate(0.166626)"/>
</clipPath>
</defs>
</svg>
