<svg width="24" height="24" viewBox="0 0 24 24" fill="none" xmlns="http://www.w3.org/2000/svg">
<path opacity="0.992" fill-rule="evenodd" clip-rule="evenodd" d="M10.9453 -0.0234375C11.6328 -0.0234375 12.3203 -0.0234375 13.0078 -0.0234375C17.2697 0.482339 20.465 2.59171 22.5938 6.30469C23.3456 7.77075 23.8066 9.31763 23.9766 10.9453C23.9766 11.6328 23.9766 12.3203 23.9766 13.0078C23.3914 17.7097 20.9539 21.0613 16.6641 23.0625C15.4836 23.5451 14.2648 23.8498 13.0078 23.9766C12.3203 23.9766 11.6328 23.9766 10.9453 23.9766C6.24342 23.3914 2.89186 20.9539 0.890625 16.6641C0.407997 15.4836 0.103309 14.2648 -0.0234375 13.0078C-0.0234375 12.3203 -0.0234375 11.6328 -0.0234375 10.9453C0.561759 6.24342 2.99926 2.89186 7.28906 0.890625C8.46956 0.407997 9.68831 0.103309 10.9453 -0.0234375ZM7.52344 5.74219C7.67105 5.72864 7.81167 5.75208 7.94531 5.8125C8.73436 6.60155 9.52345 7.39064 10.3125 8.17969C10.3561 8.27152 10.3952 8.36527 10.4297 8.46094C10.3952 8.55661 10.3561 8.65036 10.3125 8.74219C9.84375 9.21094 9.375 9.67969 8.90625 10.1484C8.64061 10.5204 8.57812 10.9267 8.71875 11.3672C9.77344 12.8594 11.0469 14.1328 12.5391 15.1875C12.9697 15.4179 13.3915 15.4023 13.8047 15.1406C14.289 14.6563 14.7735 14.1719 15.2578 13.6875C15.4453 13.5938 15.6328 13.5938 15.8203 13.6875C16.642 14.4935 17.4467 15.3138 18.2344 16.1484C18.2656 16.2735 18.2656 16.3984 18.2344 16.5234C17.776 17.1384 17.2057 17.615 16.5234 17.9531C15.9838 18.1897 15.4213 18.2678 14.8359 18.1875C13.3826 17.8435 12.0544 17.2341 10.8516 16.3594C8.97689 15.0069 7.50033 13.3116 6.42188 11.2734C6.12136 10.6568 5.88698 10.0162 5.71875 9.35156C5.58614 8.45292 5.7893 7.64044 6.32812 6.91406C6.69056 6.48127 7.089 6.09066 7.52344 5.74219Z" fill="#FAFAFA"/>
</svg>
