<!-- icon666.com - MILLIONS vector ICONS FREE --><svg id="Layer_1" viewBox="0 0 512 512" xmlns="http://www.w3.org/2000/svg" data-name="Layer 1"><path d="m256.086.082c141.376 0 256 114.587 256 256.035 0 141.376-114.623 255.963-256 255.963s-256.007-114.587-256.007-255.963c0-141.448 114.621-256.035 256.007-256.035zm5.575 94.553h-11.151a143.041 143.041 0 0 0 -108.742 228.908v88.937a5.048 5.048 0 0 0 7.572 4.371l70.717-40.828a143.238 143.238 0 0 0 137.176-37.309 143.042 143.042 0 0 0 -95.572-244.079zm-74.212 157.676h137.281a14.743 14.743 0 1 0 0-29.486h-137.281a14.743 14.743 0 1 0 0 29.486zm0-19.392a4.65 4.65 0 0 0 0 9.3h137.281a4.65 4.65 0 1 0 0-9.3zm0 64.651h137.281a14.744 14.744 0 1 0 0-29.487h-137.281a14.744 14.744 0 1 0 0 29.487zm0-19.4a4.653 4.653 0 0 0 0 9.305h137.281a4.653 4.653 0 0 0 0-9.305zm0-71.121h137.281a14.744 14.744 0 1 0 0-29.487h-137.281a14.744 14.744 0 1 0 0 29.487zm0-19.393a4.651 4.651 0 0 0 0 9.3h137.281a4.651 4.651 0 0 0 0-9.3z" fill="#ffc107" fill-rule="evenodd"></path></svg>