<svg width="26" height="26" viewBox="0 0 26 26" fill="none" xmlns="http://www.w3.org/2000/svg">
<g clip-path="url(#clip0_2101_2222)">
<path d="M0.8125 13C0.8125 18.3219 4.225 22.8313 8.9375 24.4969V1.50313C4.225 3.16875 0.8125 7.67813 0.8125 13Z" fill="#2A5F9E"/>
<path d="M25.1875 13C25.1875 7.67813 21.8156 3.16875 17.0625 1.50313V24.4969C21.8156 22.8313 25.1875 18.3219 25.1875 13Z" fill="#C94747"/>
<path d="M8.9375 24.4969C10.1969 24.9438 11.5781 25.1875 13 25.1875C14.4219 25.1875 15.8031 24.9438 17.0625 24.4969V1.50313C15.8031 1.05625 14.4219 0.8125 13 0.8125C11.5781 0.8125 10.1969 1.05625 8.9375 1.50313V24.4969Z" fill="#FFCE31"/>
</g>
<defs>
<clipPath id="clip0_2101_2222">
<rect width="26" height="26" fill="white"/>
</clipPath>
</defs>
</svg>
