<svg width="26" height="26" viewBox="0 0 26 26" fill="none" xmlns="http://www.w3.org/2000/svg">
<g clip-path="url(#clip0_1861_2665)">
<path d="M12.9594 0.8125C7.67817 0.8125 3.1688 4.225 1.50317 8.9375H24.4969C22.7907 4.225 18.2813 0.8125 12.9594 0.8125Z" fill="#F9F9F9"/>
<path d="M12.9594 25.1875C18.2813 25.1875 22.7907 21.775 24.4563 17.0625H1.50317C3.1688 21.8156 7.67817 25.1875 12.9594 25.1875Z" fill="#ED4C5C"/>
<path d="M1.50313 8.9375C1.05625 10.1969 0.8125 11.5781 0.8125 13C0.8125 14.4219 1.05625 15.8031 1.50313 17.0625H24.4969C24.9438 15.8031 25.1875 14.4219 25.1875 13C25.1875 11.5781 24.9438 10.1969 24.4969 8.9375H1.50313Z" fill="#428BC1"/>
</g>
<defs>
<clipPath id="clip0_1861_2665">
<rect width="26" height="26" fill="white"/>
</clipPath>
</defs>
</svg>
