<svg width="26" height="26" viewBox="0 0 26 26" fill="none" xmlns="http://www.w3.org/2000/svg">
<g clip-path="url(#clip0_1861_2575)">
<path d="M13 25.1875C18.3219 25.1875 22.8313 21.8156 24.4969 17.0625H1.50317C3.1688 21.8156 7.67817 25.1875 13 25.1875Z" fill="#ED4C5C"/>
<path d="M13 0.8125C7.67817 0.8125 3.1688 4.225 1.50317 8.9375H24.4969C22.8313 4.225 18.3219 0.8125 13 0.8125Z" fill="#F9F9F9"/>
<path d="M24.4969 17.0625C24.9438 15.8031 25.1875 14.4219 25.1875 13C25.1875 11.5781 24.9438 10.1969 24.4969 8.9375H1.50313C1.05625 10.1969 0.8125 11.5781 0.8125 13C0.8125 14.4219 1.05625 15.8031 1.50313 17.0625H24.4969Z" fill="#428BC1"/>
<path d="M12.2688 9.87187L12.5938 5.32187C10.0344 4.18437 7.02813 4.18437 4.46875 5.32187L4.79375 9.87187C4.95625 11.9031 6.41875 13.65 8.53125 14.2188C10.6437 13.6094 12.1063 11.9031 12.2688 9.87187Z" fill="#428BC1"/>
<path d="M5.48438 10.4812C5.85 11.9437 6.9875 13.1625 8.53125 13.65C10.075 13.1625 11.2125 11.9437 11.5781 10.4812L10.0344 8.57183L9.425 9.3437L8.53125 7.63745L7.6375 9.3437L7.02812 8.57183L5.48438 10.4812Z" fill="white"/>
<path d="M5.6062 10.9281C5.89058 11.375 6.49995 11.5375 6.98745 11.2937C7.31245 11.1312 7.67808 11.1312 8.00308 11.2937C8.32808 11.4562 8.6937 11.4562 9.0187 11.2937C9.3437 11.1312 9.70933 11.1312 10.0343 11.2937C10.5218 11.5375 11.1312 11.4156 11.4156 10.9281V11.2125C11.1312 11.6594 10.5218 11.8219 10.0343 11.5781C9.74995 11.375 9.3437 11.375 9.0187 11.5781C8.6937 11.7406 8.32808 11.7406 8.00308 11.5781C7.7187 11.375 7.31245 11.375 6.98745 11.5781C6.49995 11.8219 5.89058 11.7 5.6062 11.2125V10.9281Z" fill="#428BC1"/>
<path d="M5.6062 11.4968C5.89058 11.9437 6.49995 12.1062 6.98745 11.8625C7.31245 11.7 7.67808 11.7 8.00308 11.8625C8.32808 12.025 8.6937 12.025 9.0187 11.8625C9.3437 11.7 9.70933 11.7 10.0343 11.8625C10.5218 12.1062 11.1312 11.9843 11.4156 11.4968V11.7812C11.1312 12.2281 10.5218 12.3906 10.0343 12.1468C9.70933 11.9843 9.3437 11.9843 9.0187 12.1468C8.6937 12.3093 8.32808 12.3093 8.00308 12.1468C7.67808 11.9843 7.31245 11.9843 6.98745 12.1468C6.49995 12.3906 5.89058 12.2687 5.6062 11.7812V11.4968Z" fill="#428BC1"/>
<path d="M4.75312 5.19995L5.07812 9.8312C5.2 11.7406 6.58125 13.3656 8.53125 13.9343C10.4813 13.3656 11.8219 11.7406 11.9844 9.8312L12.3094 5.19995C12.3906 5.24058 12.5125 5.2812 12.5938 5.32183L12.2688 9.87183C12.1063 11.9031 10.6437 13.65 8.53125 14.2187C6.41875 13.6093 4.95625 11.9031 4.79375 9.87183L4.46875 5.32183C4.55 5.2812 4.67187 5.24058 4.75312 5.19995Z" fill="#ED4C5C"/>
<path d="M6.90625 4.83435L6.9875 5.11873L7.3125 5.03748L7.06875 5.28123L7.3125 5.52498L6.9875 5.44373L6.90625 5.7281L6.825 5.44373L6.5 5.52498L6.74375 5.28123L6.5 5.03748L6.825 5.11873L6.90625 4.83435ZM10.1562 4.83435L10.2375 5.11873L10.5625 5.03748L10.3187 5.28123L10.5625 5.52498L10.2375 5.44373L10.1562 5.7281L10.075 5.44373L9.75 5.52498L9.99375 5.28123L9.75 5.03748L10.075 5.11873L10.1562 4.83435ZM8.53125 6.01248L8.6125 6.29685L8.9375 6.25623L8.69375 6.45935L8.9375 6.7031L8.6125 6.62185L8.53125 6.90623L8.45 6.62185L8.125 6.7031L8.36875 6.45935L8.125 6.25623L8.45 6.29685L8.53125 6.01248Z" fill="#FFE62E"/>
</g>
<defs>
<clipPath id="clip0_1861_2575">
<rect width="26" height="26" fill="white"/>
</clipPath>
</defs>
</svg>
