<svg width="26" height="26" viewBox="0 0 26 26" fill="none" xmlns="http://www.w3.org/2000/svg">
<g clip-path="url(#clip0_1861_2539)">
<path d="M0.8125 13C0.8125 15.3969 1.50312 17.6313 2.68125 19.5H23.2781C24.4562 17.6313 25.1469 15.3969 25.1469 13C25.1469 10.6031 24.4562 8.36875 23.2781 6.5H2.68125C1.50312 8.36875 0.8125 10.6031 0.8125 13Z" fill="#FFCE31"/>
<path d="M23.3188 6.5C21.1657 3.0875 17.3469 0.8125 13 0.8125C8.65315 0.8125 4.8344 3.0875 2.68127 6.5H23.3188ZM2.68127 19.5C4.8344 22.9125 8.65315 25.1875 13 25.1875C17.3469 25.1875 21.1657 22.9125 23.3188 19.5H2.68127Z" fill="#ED4C5C"/>
<path d="M3.73755 11.6594H5.03755V12.3907H3.73755V11.6594ZM3.73755 17.0219H5.07817V17.7125H3.73755V17.0219Z" fill="#C8B100"/>
<path d="M3.6156 15.8844C3.49373 15.9656 3.41248 16.0469 3.41248 16.0875C3.41248 16.1281 3.4531 16.1688 3.53435 16.2094C3.6156 16.25 3.69685 16.3313 3.65623 16.4125C3.73748 16.3313 3.7781 16.25 3.7781 16.1688C3.7781 16.0469 3.69685 15.925 3.6156 15.8844Z" fill="#ED4C5C"/>
<path d="M3.94067 12.3906H4.87505V17.0219H3.94067V12.3906Z" fill="white"/>
<path d="M5.85005 14.0969C5.64692 14.0156 5.2813 13.9344 4.87505 13.9344C4.75317 13.9344 4.59067 13.9344 4.42817 13.975C3.85942 14.0563 3.41255 14.3 3.45317 14.4625L3.25005 14.0156C3.20942 13.8125 3.69692 13.5687 4.3063 13.4469C4.50942 13.4062 4.71255 13.4062 4.87505 13.4062C5.2813 13.4062 5.64692 13.4469 5.85005 13.5281V14.0969Z" fill="#ED4C5C"/>
<path d="M3.94065 14.7063C3.6969 14.7063 3.49377 14.625 3.49377 14.5031C3.49377 14.4219 3.57502 14.3 3.73752 14.2188H3.98127L3.94065 14.7063ZM4.87502 14.3406C5.03752 14.3812 5.1594 14.4219 5.24065 14.4625C5.28127 14.5031 5.11877 14.6656 4.87502 14.7875V14.3406Z" fill="#ED4C5C"/>
<path d="M3.33126 15.6C3.29064 15.5188 3.57501 15.3563 3.94064 15.2344C4.10314 15.1938 4.22501 15.1125 4.42814 15.0313C4.91564 14.8282 5.32189 14.5438 5.24064 14.4625L5.32189 14.95C5.36251 15.0313 5.03751 15.275 4.55001 15.5188C4.38751 15.6 4.10314 15.7219 3.94064 15.7625C3.65626 15.8438 3.41251 16.0063 3.41251 16.0469L3.33126 15.6Z" fill="#ED4C5C"/>
<path d="M12.4719 11.6594H13.7719V12.3907H12.4719V11.6594ZM12.4313 17.0219H13.7719V17.7125H12.4313V17.0219Z" fill="#C8B100"/>
<path d="M13.8937 15.8844C14.0156 15.9656 14.0968 16.0469 14.0968 16.0875C14.0968 16.1281 14.0562 16.1688 13.975 16.2094C13.8937 16.2907 13.8125 16.4125 13.8531 16.4532C13.7718 16.3719 13.7312 16.2907 13.7312 16.2094C13.7312 16.0469 13.8125 15.925 13.8937 15.8844Z" fill="#ED4C5C"/>
<path d="M12.6344 12.3906H13.5688V17.0219H12.6344V12.3906Z" fill="white"/>
<path d="M11.6593 14.0969C11.8624 14.0156 12.2281 13.9344 12.6343 13.9344C12.7562 13.9344 12.9187 13.9344 13.0812 13.975C13.6499 14.0563 14.0968 14.3 14.0562 14.4625L14.2593 13.975C14.2999 13.7719 13.8124 13.5281 13.2031 13.4062H12.6343C12.2281 13.4062 11.8624 13.4469 11.6593 13.5281V14.0969Z" fill="#ED4C5C"/>
<path d="M13.5687 14.7063C13.8124 14.7063 14.0155 14.625 14.0155 14.5031C14.0155 14.4219 13.9343 14.3 13.7718 14.2188H13.528L13.5687 14.7063ZM12.6343 14.3406C12.4718 14.3812 12.3499 14.4219 12.2687 14.4625C12.228 14.5031 12.3905 14.6656 12.6343 14.7875V14.3406Z" fill="#ED4C5C"/>
<path d="M14.1781 15.6C14.2187 15.5187 13.9343 15.3562 13.5687 15.2343C13.4062 15.1937 13.2843 15.1125 13.0812 15.0312C12.5937 14.8281 12.1875 14.5437 12.2687 14.4625L12.1875 14.95C12.1468 15.0312 12.4718 15.275 12.9593 15.5187C13.1218 15.6 13.4062 15.7218 13.5687 15.7625C13.8531 15.8437 14.0968 16.0468 14.0562 16.0875L14.1781 15.6ZM8.73433 9.05933C9.5062 9.05933 11.0906 9.22183 11.6593 9.79058C11.05 11.2531 10.075 10.6437 8.73433 10.6437C7.43433 10.6437 6.4187 11.2531 5.80933 9.79058C6.37808 9.22183 7.92183 9.05933 8.73433 9.05933Z" fill="#ED4C5C"/>
<path d="M10.725 10.6844C10.2375 10.4 9.5062 10.3594 8.73433 10.3594C7.96245 10.3594 7.2312 10.4406 6.7437 10.6844L6.9062 11.375C7.35308 11.4969 8.00308 11.5781 8.73433 11.5781C9.46558 11.5781 10.075 11.4969 10.5625 11.375L10.725 10.6844ZM11.4156 8.9375C11.2531 8.81562 10.9281 8.69375 10.6437 8.69375C10.5218 8.69375 10.4 8.69375 10.2781 8.73438C10.2781 8.73438 10.0343 8.40938 9.46558 8.40938C9.26245 8.40938 9.09995 8.45 8.93745 8.53125V8.49062C8.89683 8.40937 8.81558 8.32812 8.73433 8.32812C8.65308 8.32812 8.5312 8.45 8.5312 8.53125V8.57188C8.3687 8.49063 8.2062 8.45 8.00308 8.45C7.43433 8.45 7.19058 8.81563 7.19058 8.775C7.0687 8.73438 6.94683 8.73438 6.82495 8.73438C4.9562 8.73438 5.89058 9.99375 5.89058 9.99375L6.0937 9.75C5.64683 9.18125 6.05308 8.85625 6.86558 8.85625C6.98745 8.85625 7.0687 8.85625 7.14995 8.89687C6.86558 9.30312 7.3937 9.66875 7.3937 9.66875L7.51558 9.46562C7.2312 9.2625 7.19058 8.57188 8.00308 8.57188C8.2062 8.57188 8.3687 8.6125 8.5312 8.73438C8.5312 8.775 8.49058 9.34375 8.44995 9.425L8.77495 9.70937L9.09995 9.425C9.05933 9.30313 9.0187 8.775 9.0187 8.73438C9.14058 8.65312 9.3437 8.57188 9.54683 8.57188C10.4 8.57188 10.4 9.2625 10.0343 9.46562L10.1562 9.66875C10.1562 9.66875 10.6031 9.30312 10.4 8.89687C10.4812 8.89687 10.6031 8.85625 10.6843 8.85625C11.6593 8.85625 11.7 9.5875 11.4562 9.75L11.6187 9.99375C11.5375 9.99375 11.9843 9.425 11.4156 8.9375Z" fill="#C8B100"/>
<path d="M8.4906 8.16563C8.4906 8.04375 8.61248 7.92188 8.73435 7.92188C8.89685 7.92188 8.9781 8.04375 8.9781 8.16563C8.9781 8.2875 8.85623 8.40938 8.73435 8.40938C8.61248 8.40938 8.4906 8.2875 8.4906 8.16563Z" fill="#005BBF"/>
<path d="M8.6531 7.47498V7.59685H8.53123V7.71873H8.6531V8.12498H8.4906V8.24685H8.9781L9.01873 8.1656L8.9781 8.12498H8.8156V7.71873H8.93748V7.59685H8.8156V7.47498H8.6531Z" fill="#C8B100"/>
<path d="M8.73435 11.4968C8.08435 11.4968 7.5156 11.4156 7.06873 11.2937C7.5156 11.1718 8.08435 11.0906 8.73435 11.0906C9.38435 11.0906 9.9531 11.1718 10.4 11.2937C9.99373 11.4156 9.38435 11.4968 8.73435 11.4968Z" fill="#ED4C5C"/>
<path d="M8.77498 18.525C8.0031 18.525 7.27185 18.3219 6.62185 18.0375C6.13435 17.7938 5.84998 17.3469 5.84998 16.8188V14.8688H11.7V16.8188C11.7 17.3469 11.375 17.8344 10.9281 18.0375C10.2781 18.3625 9.54685 18.525 8.77498 18.525ZM8.73435 11.6188H11.6594V14.8688H8.73435V11.6188Z" fill="white"/>
<path d="M8.77498 16.8188C8.77498 17.5907 8.12498 18.2 7.31248 18.2C6.49998 18.2 5.84998 17.5907 5.84998 16.8188V14.8688H8.77498V16.8188Z" fill="#ED4C5C"/>
<path d="M6.45933 17.9562C6.54058 17.9969 6.66245 18.0781 6.82495 18.1187V14.7875H6.49995L6.45933 17.9562ZM5.80933 16.7781C5.80933 17.1843 5.97183 17.5094 6.13433 17.6718V14.7875H5.80933V16.7781Z" fill="#C8B100"/>
<path d="M7.10938 18.2H7.43437V14.7875H7.10938V18.2Z" fill="#C7B500"/>
<path d="M7.7594 18.1187C7.88127 18.0781 8.04377 17.9969 8.12502 17.9562V14.7875H7.80002L7.7594 18.1187Z" fill="#C8B100"/>
<path d="M5.80933 11.6188H8.73433V14.8688H5.80933V11.6188Z" fill="#ED4C5C"/>
<path d="M8.44995 17.6719C8.61245 17.55 8.73433 17.2656 8.77495 16.9406V14.8281H8.44995V17.6719Z" fill="#C8B100"/>
<path d="M11.7 14.8687V16.8187C11.7 17.5906 11.05 18.2 10.2375 18.2C9.42498 18.2 8.77498 17.5906 8.77498 16.8187V14.8687H11.7ZM10.6437 12.1875C10.7656 12.4312 10.7656 13.0406 10.4 12.9187C10.4812 12.9594 10.5219 13.2437 10.6437 13.4062C10.8469 13.65 11.0906 13.4469 11.05 13.1625C10.9687 12.7156 11.0094 12.4312 11.0906 11.9844C11.0906 12.025 11.2937 12.025 11.375 11.9437C11.3344 12.0656 11.2937 12.2281 11.375 12.2281C11.2937 12.35 11.0906 12.5531 11.05 12.675C11.0094 12.9594 11.4562 13.4875 10.9687 13.6094C10.6437 13.6906 10.8469 13.9344 10.9687 14.0562C10.9687 14.0562 10.8062 14.5844 10.8875 14.5437C10.5625 14.6656 10.6437 14.3812 10.6437 14.3812C10.8062 13.8937 10.3594 13.8531 10.4 13.7719C9.99373 13.7312 10.4406 14.1375 10.075 14.1375C9.99373 14.1375 9.83123 14.2187 9.83123 14.2187C9.38435 14.1781 9.6281 13.7719 9.7906 13.8125C9.91248 13.8531 10.0344 14.0562 10.0344 13.7719C10.0344 13.7719 9.83123 13.4469 10.3594 13.4469C10.1562 13.4469 10.0344 13.2844 9.9531 13.0812C9.87185 13.1219 9.74998 13.325 9.3031 13.3656C9.3031 13.3656 9.18123 12.9187 9.3031 13C9.4656 13.0812 9.54685 13.0812 9.70935 12.9187C9.6281 12.7969 9.1406 12.6344 9.22185 12.35C9.22185 12.2687 9.4656 12.1469 9.4656 12.1469C9.42498 12.35 9.54685 12.5531 9.7906 12.5531C10.1156 12.5937 9.99373 12.4719 10.0344 12.3906C10.075 12.3094 10.3187 12.4312 10.2375 12.2281C10.2375 12.1875 9.9531 12.1469 10.0344 12.025C10.1969 11.8219 10.4406 11.9844 10.6437 12.1875ZM8.77498 18.1187L8.69373 17.9156L8.77498 17.6719L8.85623 17.9156L8.77498 18.1187Z" fill="#ED4C5C"/>
<path d="M6.7031 12.3094V12.5125H6.78435V12.675H6.58123V13.0813H6.7031V13.975H6.45935V14.4219H8.12498V13.975H7.92185V13.0813H8.0031V12.675H7.79998V12.5125H7.92185V12.3094H7.5156V12.5125H7.59685V12.675H7.39373V12.1875H7.5156V11.9844H7.06873V12.1875H7.1906V12.675H6.98748V12.5125H7.06873V12.3094H6.7031ZM11.2937 17.3062V15.275H9.18123V17.3062L10.1562 17.7531H10.2781L11.2937 17.3062ZM10.1562 15.4375V16.1281L9.4656 15.4375H10.1562ZM9.3031 15.4781L10.1156 16.2906L9.3031 17.1031V15.4781ZM9.38435 17.2656L10.1562 16.4937V17.6313L9.38435 17.2656ZM10.2781 17.5906V16.4531L11.05 17.225L10.2781 17.5906ZM11.1312 17.1031L10.3187 16.2906L11.1312 15.4781V17.1031ZM10.2781 15.4375H10.9687L10.2781 16.1281V15.4375Z" fill="#C8B100"/>
<path d="M7.80005 14.8281C7.80005 14.2187 8.2063 13.7719 8.73442 13.7719C9.26255 13.7719 9.6688 14.2593 9.6688 14.8281C9.6688 15.3968 9.26255 15.8843 8.73442 15.8843C8.2063 15.8843 7.80005 15.4375 7.80005 14.8281Z" fill="#ED4C5C"/>
<path d="M8.08435 14.8282C8.08435 14.3813 8.36873 14.0563 8.73435 14.0563C9.09998 14.0563 9.38435 14.4219 9.38435 14.8282C9.38435 15.275 9.09998 15.6 8.73435 15.6C8.40935 15.6407 8.08435 15.275 8.08435 14.8282Z" fill="#005BBF"/>
<path d="M8.44998 14.3L8.28748 14.7469L8.40935 14.7875L8.3281 14.95H8.57185L8.4906 14.7875L8.61248 14.7469L8.44998 14.3ZM9.05935 14.3L8.89685 14.7469L9.01873 14.7875L8.93748 14.95H9.18123L9.1406 14.7875L9.26248 14.7469L9.05935 14.3ZM8.77498 14.8282L8.57185 15.275L8.69373 15.3157L8.6531 15.4782H8.85623L8.8156 15.3157L8.93748 15.275L8.77498 14.8282Z" fill="#C8B100"/>
</g>
<defs>
<clipPath id="clip0_1861_2539">
<rect width="26" height="26" fill="white"/>
</clipPath>
</defs>
</svg>
