<svg width="93" height="94" viewBox="0 0 93 94" fill="none" xmlns="http://www.w3.org/2000/svg">
<g clip-path="url(#clip0_1914_540)">
<path d="M55.3447 35.0168L24.7086 29.6008C24.1283 29.4982 23.6122 29.1692 23.274 28.6862C22.9358 28.2032 22.8032 27.6058 22.9052 27.0253L24.4449 18.2708C24.547 17.6904 24.8755 17.1744 25.358 16.8365C25.8406 16.4986 26.4378 16.3664 27.0181 16.469L57.6542 21.885C58.2346 21.9876 58.7506 22.3166 59.0888 22.7996C59.427 23.2826 59.5597 23.88 59.4576 24.4605L57.9179 33.215C57.8158 33.7955 57.4874 34.3114 57.0048 34.6493C56.5222 34.9872 55.9251 35.1194 55.3447 35.0168ZM27.6667 25.6104L53.9262 30.2527L54.7192 25.7441L28.4597 21.1018L27.6667 25.6104Z" fill="#FA9D3E"/>
<path d="M54.5441 39.5692L23.908 34.1532C23.3276 34.0506 22.7305 34.1828 22.2479 34.5207C21.7654 34.8586 21.4369 35.3745 21.3348 35.955L19.8259 44.5344C19.7238 45.1149 19.8565 45.7123 20.1947 46.1953C20.5329 46.6783 21.0489 47.0073 21.6293 47.1099L46.4883 51.5046L55.8779 44.8148L56.3475 42.1446C56.4495 41.5642 56.3169 40.9667 55.9787 40.4837C55.6405 40.0007 55.1245 39.6718 54.5441 39.5692ZM50.8469 47.7617L24.5874 43.1195L25.3573 38.7422L51.6168 43.3845L50.8469 47.7617Z" fill="#FA9D3E"/>
<path d="M26.0832 73.8717L26.1063 73.7404L27.3416 70.822L11.192 67.967L21.223 10.9312L64.9888 18.6683L61.0434 41.1018L66.1474 37.739L69.7503 17.2534C69.8523 16.6729 69.7197 16.0755 69.3815 15.5925C69.0433 15.1095 68.5273 14.7805 67.9469 14.6779L19.8045 6.1671C19.2241 6.0645 18.627 6.19669 18.1444 6.53459C17.6618 6.87248 17.3334 7.38841 17.2313 7.96887L6.45361 69.2506C6.35152 69.831 6.48417 70.4285 6.82237 70.9115C7.16056 71.3945 7.67661 71.7235 8.25698 71.8261L25.7633 74.9209C25.8447 74.5639 25.9516 74.2133 26.0832 73.8717Z" fill="#FA9D3E"/>
<path d="M54.773 51.0962L52.7621 52.5234C53.2009 52.511 53.6261 52.3688 53.984 52.1147C54.3419 51.8607 54.6165 51.5063 54.773 51.0962Z" fill="#FA9D3E"/>
<path d="M16.7697 61.9122C16.6676 62.4926 16.8002 63.0901 17.1384 63.5731C17.4766 64.0561 17.9927 64.385 18.573 64.4876L29.1644 66.36L30.3212 63.6309L30.8174 62.4774L30.8367 62.368L21.4927 60.7161L22.2779 56.2513L36.1517 58.7039L41.2981 55.1004L20.8594 51.4872C20.2791 51.3846 19.6819 51.5168 19.1993 51.8547C18.7168 52.1926 18.3883 52.7085 18.2862 53.2889L16.7697 61.9122Z" fill="#FA9D3E"/>
<path d="M80.8788 50.0695L74.8014 41.3901C74.5319 41.004 74.1888 40.6749 73.792 40.4215C73.3952 40.1682 72.9523 39.9956 72.4889 39.9136C72.0254 39.8317 71.5504 39.842 71.0911 39.944C70.6317 40.0461 70.1971 40.2377 69.8121 40.5081L34.5026 65.3856L30.1784 75.4757C30.006 75.9135 29.9216 76.3811 29.9301 76.8517C29.9386 77.3224 30.0399 77.7868 30.2281 78.2183C30.4163 78.6499 30.6877 79.0401 31.0268 79.3667C31.3659 79.6933 31.7661 79.9498 32.2043 80.1216C32.4259 80.1841 32.6531 80.2243 32.8827 80.2415C33.1431 80.3326 33.4166 80.3809 33.6924 80.3846L44.7174 79.919L79.9819 55.169C80.3667 54.9015 80.6946 54.5604 80.947 54.1654C81.1993 53.7705 81.371 53.3294 81.4523 52.8676C81.5335 52.4059 81.5226 51.9325 81.4202 51.4749C81.3178 51.0172 81.1259 50.5842 80.8557 50.2008L80.8788 50.0695ZM43.1859 75.5411L34.865 75.898L38.2098 68.2976L64.7047 49.5346L69.7902 56.7975L43.1859 75.5411ZM72.698 54.7615L67.6125 47.4986L71.6962 44.6775L76.8177 51.9919L72.698 54.7615Z" fill="#FA9D3E"/>
</g>
<defs>
<clipPath id="clip0_1914_540">
<rect width="80" height="80" rx="2" transform="matrix(0.984731 0.174085 -0.173213 0.984884 14.0095 0.629272)" fill="white"/>
</clipPath>
</defs>
</svg>
