<svg width="101" height="100" viewBox="0 0 101 100" fill="none" xmlns="http://www.w3.org/2000/svg">
<path d="M96.8652 11.985L80.7363 27.2065L96.1648 53.1752L96.8652 52.3045V11.985ZM3.89648 12.207V56.3268C4.77148 56.4404 5.82285 56.5031 6.88379 56.5143C9.20215 56.5387 11.1131 56.3873 12.1865 56.2908L22.4707 30.2684L3.89648 12.207ZM79.9031 32.6875L78.5281 33.5774C78.4988 33.5963 77.4809 34.2289 77.1818 34.4152L75.1105 35.6691L75.1398 35.6867C74.1801 36.2838 73.9133 36.4518 72.824 37.1281C72.2713 37.4713 72.2576 37.4793 71.7334 37.8049C67.7705 35.6746 63.4705 34.0373 58.4525 32.7498C52.1416 34.6565 45.4561 37.4154 38.7803 40.0041C41.5518 43.3414 44.6318 44.4281 47.7344 44.467C51.332 44.5119 55.0098 42.9475 57.5426 41.1947L58.9879 40.1947L60.4383 42.2904L82.9877 58.5658L91.7986 52.709L79.9031 32.6875ZM25.0834 33.2227L16.2227 55.642L19.4746 58.1426L25.4893 51.3252L25.9711 50.7793L26.6977 50.734C26.9906 50.7156 27.2797 50.7072 27.5648 50.7086C29.5594 50.7215 31.3426 51.2391 32.6801 52.4195C33.6707 53.293 34.3293 54.4559 34.7113 55.8024L35.1566 55.7746C37.4994 55.6281 39.6102 56.1115 41.1391 57.4602C42.6678 58.8092 43.4105 60.8436 43.557 63.1867L43.5707 63.3977C44.8285 63.6352 45.9545 64.1305 46.8701 64.9383C48.399 66.2871 49.1416 68.3211 49.2881 70.6643L49.3266 71.2736C49.4514 71.3132 49.5751 71.3561 49.6977 71.4022L50.0947 70.8449L51.1631 69.3453L51.7125 68.5738L53.1441 69.594L64.7512 77.8627C66.0137 77.5514 66.7662 77.0668 67.1848 76.4787C67.6041 75.8904 67.8162 75.0197 67.6973 73.7234L53.7797 63.7566L52.3504 62.7332L53.3641 61.318L54.6668 59.4889L56.0984 60.509L71.7889 71.686C73.0514 71.3748 73.8045 70.8902 74.223 70.3022C74.6418 69.7143 74.8539 68.8457 74.7357 67.5518L56.6893 54.749L55.2557 53.7315L57.2896 50.8643L58.7238 51.8815L76.7734 64.6871C78.0371 64.3758 78.7904 63.8912 79.2096 63.3027C79.6291 62.7139 79.841 61.8426 79.7213 60.544L58.151 44.9756C55.2887 46.6725 51.6271 48.0318 47.6906 47.9826C43.0838 47.925 38.1561 45.7236 34.5311 40.1604C34.3877 39.9404 34.2954 39.691 34.261 39.4307C34.2267 39.1704 34.2511 38.9056 34.3324 38.656C34.4138 38.4063 34.5501 38.178 34.7312 37.9879C34.9124 37.7978 35.1338 37.6507 35.3793 37.5574C37.9211 36.5916 40.4893 35.5711 43.0635 34.5586L25.0838 33.2238L25.0834 33.2227ZM27.6033 54.2422L18.3135 64.7715C18.4945 66.0891 18.9072 66.9086 19.4633 67.3992C20.0193 67.8899 20.8842 68.1971 22.2141 68.2125L31.5037 57.6836C31.3227 56.3658 30.91 55.5459 30.3539 55.0553C29.7979 54.5647 28.9332 54.2576 27.6031 54.2424L27.6033 54.2422ZM36.0619 59.2832L25.5711 71.1738C25.752 72.4916 26.1648 73.3115 26.7207 73.8022C27.2773 74.2924 28.1416 74.5996 29.4717 74.6147L39.9625 62.7244C39.7816 61.4065 39.3687 60.5869 38.8127 60.0961C38.2566 59.6053 37.3922 59.2983 36.0621 59.2828L36.0619 59.2832ZM41.7924 66.7609L32.5033 77.2902C32.6844 78.6078 33.0971 79.4276 33.6531 79.9184C34.2094 80.409 35.074 80.7158 36.4039 80.7313L45.6934 70.2031C45.5123 68.8848 45.0996 68.0651 44.5436 67.5742C43.9875 67.0836 43.1229 66.7768 41.7928 66.7613L41.7924 66.7609ZM46.617 74.4049L39.04 83.0533C39.2207 84.3736 39.6334 85.1944 40.19 85.6854C40.7457 86.1756 41.6094 86.4826 42.9375 86.4985L50.5148 77.85C50.334 76.5301 49.9211 75.7094 49.3645 75.218C48.809 74.7277 47.9453 74.4211 46.6172 74.4051L46.617 74.4049ZM53.5197 75.3404C53.8506 76.2428 54.0418 77.2428 54.1084 78.3076L54.1537 79.0311L52.5371 80.8764L57.7566 84.5945C59.0191 84.2832 59.7715 83.7986 60.1902 83.2106C60.6092 82.6227 60.8217 81.7527 60.7035 80.458L53.5199 75.3408L53.5197 75.3404Z" fill="#FA9D3E"/>
</svg>
