<svg width="103" height="103" viewBox="0 0 103 103" fill="none" xmlns="http://www.w3.org/2000/svg">
<g clip-path="url(#clip0_1914_552)">
<path d="M84.1635 44.724C86.0602 45.5823 87.8009 46.628 89.3856 47.8613C90.9703 49.0945 92.3965 50.5011 93.6642 52.0811C94.9319 53.6611 95.9632 55.3846 96.7579 57.2515C97.5527 59.1185 98.1574 61.0626 98.5722 63.0837C99.1644 66.4408 99.087 69.7122 98.34 72.898C97.593 76.0838 96.2993 78.9733 94.4588 81.5665C92.6183 84.1597 90.343 86.3496 87.633 88.1362C84.923 89.9227 81.8779 91.1284 78.4975 91.7533C75.9303 92.2058 73.3806 92.2625 70.8483 91.9234C68.316 91.5844 65.9214 90.872 63.6646 89.7863C61.4078 88.7006 59.327 87.293 57.422 85.5635C55.5171 83.8341 53.9275 81.8309 52.6532 79.554L18.7576 85.528L7.29179 20.5315L18.1248 18.6223L17.1693 13.2059L22.5859 12.2512L23.5413 17.6676L61.457 10.9851L60.5015 5.56874L65.918 4.61409L66.8735 10.0305L77.7065 8.12117L84.1635 44.724ZM13.6638 24.9933L15.5748 35.826L75.1565 25.3249L73.2455 14.4922L67.829 15.4468L68.7844 20.8632L63.3679 21.8178L62.4124 16.4015L24.4968 23.084L25.4523 28.5003L20.0358 29.455L19.0803 24.0386L13.6638 24.9933ZM50.4282 74.3614C50.1893 73.5017 49.9877 72.6065 49.8235 71.6755C49.3955 69.2495 49.3185 66.8342 49.5925 64.4299C49.8665 62.0255 50.5155 59.686 51.5395 57.4112L47.4348 58.1346L46.4793 52.7183L51.8958 51.7636L52.5378 55.4027C53.4406 53.7602 54.5003 52.2645 55.7168 50.9157C56.9332 49.5669 58.2899 48.3533 59.7868 47.275C61.2837 46.1968 62.886 45.3036 64.5936 44.5954C66.3012 43.8872 68.0694 43.3574 69.8981 43.006C72.7192 42.5088 75.5096 42.4969 78.2693 42.9704L76.1119 30.7413L16.5303 41.2424L23.2187 79.1569L50.4282 74.3614ZM77.542 86.3369C80.1657 85.8745 82.5329 84.9483 84.6438 83.5582C86.7548 82.1681 88.5189 80.461 89.9362 78.4368C91.3535 76.4127 92.3543 74.1711 92.9386 71.7121C93.5229 69.253 93.5952 66.6951 93.1556 64.0384C92.6928 61.4148 91.7662 59.0476 90.3757 56.9366C88.9852 54.8255 87.2778 53.0613 85.2533 51.6438C83.2289 50.2262 80.987 49.2252 78.5278 48.6405C76.0685 48.0559 73.5104 47.9832 70.8536 48.4224C68.23 48.8848 65.8627 49.811 63.7518 51.2011C61.6409 52.5912 59.8768 54.2983 58.4595 56.3224C57.0422 58.3466 56.0414 60.5882 55.4571 63.0472C54.8728 65.5063 54.8004 68.0642 55.24 70.7209C55.7028 73.3445 56.6295 75.7117 58.02 77.8227C59.4104 79.9337 61.1179 81.698 63.1423 83.1155C65.1668 84.5331 67.4086 85.5341 69.8679 86.1188C72.3272 86.7034 74.8852 86.7761 77.542 86.3369ZM76.4283 64.1941L84.5531 62.7622L85.5086 68.1785L71.9673 70.5652L69.1009 54.316L74.5174 53.3614L76.4283 64.1941ZM24.8132 56.5368L30.2297 55.5822L31.1852 60.9986L25.7687 61.9532L24.8132 56.5368ZM35.6463 54.6275L41.0628 53.6729L42.0183 59.0893L36.6017 60.0439L35.6463 54.6275ZM33.7353 43.7948L39.1518 42.8402L40.1073 48.2565L34.6908 49.2112L33.7353 43.7948ZM26.7242 67.3696L32.1407 66.4149L33.0962 71.8313L27.6797 72.7859L26.7242 67.3696ZM37.5572 65.4603L42.9738 64.5056L43.9292 69.922L38.5127 70.8766L37.5572 65.4603ZM50.9403 46.3472L45.5238 47.3019L44.5683 41.8855L49.9848 40.9309L50.9403 46.3472ZM61.7734 44.438L56.3568 45.3926L55.4014 39.9762L60.8179 39.0216L61.7734 44.438ZM72.6064 42.5287L67.1899 43.4833L66.2344 38.0669L71.6509 37.1123L72.6064 42.5287Z" fill="#FA9D3E"/>
</g>
<defs>
<clipPath id="clip0_1914_552">
<rect width="88" height="88" rx="2" transform="matrix(0.984821 -0.173572 0.173725 0.984794 0.9198 16.0698)" fill="white"/>
</clipPath>
</defs>
</svg>
