<svg width="25" height="24" viewBox="0 0 25 24" fill="none" xmlns="http://www.w3.org/2000/svg">
<g clip-path="url(#clip0_1878_459)">
<path d="M12.1666 0C8.98475 0 5.93038 1.26506 3.68225 3.51469C1.43181 5.76521 0.167249 8.81734 0.166626 12C0.166626 15.1813 1.43225 18.2357 3.68225 20.4853C5.93038 22.7349 8.98475 24 12.1666 24C15.3485 24 18.4029 22.7349 20.651 20.4853C22.901 18.2357 24.1666 15.1813 24.1666 12C24.1666 8.81869 22.901 5.76431 20.651 3.51469C18.4029 1.26506 15.3485 0 12.1666 0Z" fill="url(#paint0_linear_1878_459)"/>
<path d="M5.59847 11.874C9.09722 10.35 11.4297 9.34521 12.596 8.85977C15.9297 7.47359 16.6216 7.23284 17.0735 7.22468C17.1728 7.22309 17.3941 7.24765 17.5385 7.36437C17.6585 7.46281 17.6922 7.59593 17.7091 7.6894C17.7241 7.78277 17.7447 7.99559 17.7278 8.16171C17.5478 10.0592 16.766 14.6638 16.3685 16.7891C16.2016 17.6884 15.8697 17.9899 15.5491 18.0193C14.8516 18.0835 14.3228 17.5588 13.6478 17.1165C12.5922 16.4241 11.996 15.9932 10.9703 15.3176C9.78534 14.5369 10.5541 14.1077 11.2291 13.4065C11.4053 13.2229 14.4766 10.4301 14.5347 10.1768C14.5422 10.1451 14.5497 10.027 14.4785 9.96471C14.4091 9.90227 14.306 9.92365 14.231 9.94052C14.1241 9.96452 12.4385 11.0798 9.16847 13.2861C8.69034 13.615 8.25722 13.7753 7.86722 13.7668C7.43972 13.7576 6.61472 13.5246 6.00159 13.3255C5.25159 13.0811 4.65347 12.952 4.70597 12.537C4.73222 12.321 5.03034 12.1 5.59847 11.874Z" fill="white"/>
</g>
<defs>
<linearGradient id="paint0_linear_1878_459" x1="1200.17" y1="0" x2="1200.17" y2="2400" gradientUnits="userSpaceOnUse">
<stop stop-color="#2AABEE"/>
<stop offset="1" stop-color="#229ED9"/>
</linearGradient>
<clipPath id="clip0_1878_459">
<rect width="24" height="24" fill="white" transform="translate(0.166626)"/>
</clipPath>
</defs>
</svg>
