<svg width="26" height="26" viewBox="0 0 26 26" fill="none" xmlns="http://www.w3.org/2000/svg">
<g clip-path="url(#clip0_1861_2634)">
<path d="M19.5 2.68125C17.5906 1.50312 15.3969 0.8125 13 0.8125V2.68125H19.5Z" fill="#ED4C5C"/>
<path d="M13 4.55002H21.775C21.0844 3.8594 20.3125 3.2094 19.5 2.68127H13V4.55002Z" fill="white"/>
<path d="M13 6.41874H23.2781C22.8312 5.72811 22.3438 5.11874 21.8156 4.54999H13V6.41874Z" fill="#ED4C5C"/>
<path d="M13 8.28751H24.2531C23.9688 7.63751 23.6437 6.98751 23.2781 6.41876H13V8.28751Z" fill="white"/>
<path d="M13 10.1562H24.8625C24.7 9.50623 24.4969 8.89685 24.2531 8.28748H13V10.1562Z" fill="#ED4C5C"/>
<path d="M13 12.0656H25.1469C25.1063 11.4156 24.9844 10.8063 24.8625 10.1969H13V12.0656Z" fill="white"/>
<path d="M25.1469 12.0656H13V13H0.8125C0.8125 13.325 0.8125 13.6094 0.853125 13.9344H25.1469C25.1875 13.6094 25.1875 13.325 25.1875 13C25.1875 12.675 25.1875 12.35 25.1469 12.0656Z" fill="#ED4C5C"/>
<path d="M1.1374 15.8031H24.8624C25.0249 15.1938 25.1062 14.5844 25.1468 13.9344H0.853027C0.893652 14.5438 0.974902 15.1938 1.1374 15.8031Z" fill="white"/>
<path d="M1.74683 17.6718H24.2531C24.4968 17.0625 24.7 16.4531 24.8625 15.8031H1.13745C1.29995 16.4531 1.50308 17.0625 1.74683 17.6718Z" fill="#ED4C5C"/>
<path d="M2.72183 19.5406H23.2781C23.6437 18.9312 23.9687 18.3219 24.2531 17.6719H1.74683C2.0312 18.3219 2.3562 18.9312 2.72183 19.5406Z" fill="white"/>
<path d="M4.18442 21.4094H21.8157C22.3438 20.8407 22.8719 20.1906 23.2782 19.5406H2.72192C3.12817 20.2313 3.6563 20.8407 4.18442 21.4094Z" fill="#ED4C5C"/>
<path d="M6.45933 23.2781H19.5406C20.3937 22.75 21.125 22.1 21.8156 21.4094H4.18433C4.87495 22.1406 5.64683 22.75 6.45933 23.2781Z" fill="white"/>
<path d="M13.0001 25.1875C15.397 25.1875 17.6313 24.4969 19.5407 23.2781H6.45947C8.36885 24.4969 10.6032 25.1875 13.0001 25.1875Z" fill="#ED4C5C"/>
<path d="M6.5 2.68125C5.64687 3.20937 4.875 3.85938 4.18438 4.55C3.61563 5.11875 3.12812 5.76875 2.72187 6.41875C2.35625 7.02813 1.99063 7.6375 1.74688 8.2875C1.50313 8.89687 1.3 9.50625 1.1375 10.1562C0.975 10.7656 0.89375 11.375 0.853125 12.025C0.8125 12.35 0.8125 12.675 0.8125 13H13V0.8125C10.6031 0.8125 8.40937 1.50312 6.5 2.68125Z" fill="#428BC1"/>
<path d="M10.1563 1.21875L10.3595 1.82812H10.9688L10.4813 2.23438L10.6438 2.84375L10.1563 2.47812L9.66885 2.84375L9.83135 2.23438L9.34385 1.82812H9.95322L10.1563 1.21875ZM11.7813 3.65625L11.9845 4.26562H12.5938L12.1063 4.67188L12.2688 5.28125L11.7813 4.91563L11.2938 5.28125L11.4563 4.67188L10.9688 4.26562H11.5782L11.7813 3.65625ZM8.53135 3.65625L8.73447 4.26562H9.34385L8.85635 4.67188L9.01885 5.28125L8.53135 4.91563L8.04385 5.28125L8.20635 4.67188L7.71885 4.26562H8.32822L8.53135 3.65625ZM10.1563 6.09375L10.3595 6.70312H10.9688L10.4813 7.10938L10.6438 7.71875L10.1563 7.35313L9.66885 7.71875L9.83135 7.10938L9.34385 6.70312H9.95322L10.1563 6.09375ZM6.90635 6.09375L7.10947 6.70312H7.71885L7.23135 7.10938L7.39385 7.71875L6.90635 7.35313L6.41885 7.71875L6.58135 7.10938L6.09385 6.70312H6.70322L6.90635 6.09375ZM3.65635 6.09375L3.85947 6.70312H4.46885L3.98135 7.10938L4.14385 7.71875L3.65635 7.35313L3.16885 7.71875L3.33135 7.10938L2.84385 6.70312H3.45322L3.65635 6.09375ZM11.7813 8.53125L11.9845 9.14062H12.5938L12.1063 9.54688L12.2688 10.1562L11.7813 9.79063L11.2938 10.1562L11.4563 9.54688L10.9688 9.14062H11.5782L11.7813 8.53125ZM8.53135 8.53125L8.73447 9.14062H9.34385L8.85635 9.54688L9.01885 10.1562L8.53135 9.79063L8.04385 10.1562L8.20635 9.54688L7.71885 9.14062H8.32822L8.53135 8.53125ZM5.28135 8.53125L5.48447 9.14062H6.09385L5.60635 9.54688L5.76885 10.1562L5.28135 9.79063L4.79385 10.1562L4.95635 9.54688L4.46885 9.14062H5.07822L5.28135 8.53125ZM10.1563 10.9688L10.3595 11.5781H10.9688L10.4813 11.9844L10.6438 12.5938L10.1563 12.2281L9.66885 12.5938L9.83135 11.9844L9.34385 11.5781H9.95322L10.1563 10.9688ZM6.90635 10.9688L7.10947 11.5781H7.71885L7.23135 11.9844L7.39385 12.5938L6.90635 12.2281L6.41885 12.5938L6.58135 11.9844L6.09385 11.5781H6.70322L6.90635 10.9688ZM3.65635 10.9688L3.85947 11.5781H4.46885L3.98135 11.9844L4.14385 12.5938L3.65635 12.2281L3.16885 12.5938L3.33135 11.9844L2.84385 11.5781H3.45322L3.65635 10.9688ZM4.79385 5.28125L5.28135 4.91563L5.76885 5.28125L5.56572 4.67188L6.05322 4.26562H5.44385L5.28135 3.65625L5.07822 4.26562H4.50947L4.99697 4.63125L4.79385 5.28125ZM1.54385 10.1562L2.03135 9.79063L2.51885 10.1562L2.31572 9.54688L2.80322 9.14062H2.23447L2.03135 8.53125L1.82822 9.14062H1.42197C1.42197 9.18125 1.38135 9.22187 1.38135 9.2625L1.70635 9.50625L1.54385 10.1562Z" fill="white"/>
</g>
<defs>
<clipPath id="clip0_1861_2634">
<rect width="26" height="26" fill="white"/>
</clipPath>
</defs>
</svg>
