<svg width="27" height="26" viewBox="0 0 27 26" fill="none" xmlns="http://www.w3.org/2000/svg">
<path fill-rule="evenodd" clip-rule="evenodd" d="M19.7738 0.669874C15.4223 -0.223291 10.9097 -0.223291 6.55816 0.669874L6.08929 0.765124C4.86526 1.01641 3.74105 1.57435 2.84156 2.37696C1.94206 3.17958 1.3025 4.19545 0.993903 5.31173C-0.109133 9.30273 -0.109133 13.4835 0.993903 17.4745C1.2882 18.5391 1.8838 19.5133 2.72035 20.2984C3.55689 21.0835 4.60463 21.6515 5.75734 21.9449L6.40049 25.4704C6.42102 25.5824 6.47386 25.6872 6.55351 25.7741C6.63315 25.8609 6.7367 25.9265 6.85335 25.9641C6.97001 26.0018 7.09551 26.01 7.21679 25.9879C7.33807 25.9658 7.4507 25.9143 7.54294 25.8387L11.3202 22.7361C14.1557 22.895 17.0015 22.6868 19.7738 22.1176L20.2441 22.0224C21.4681 21.7711 22.5923 21.2132 23.4918 20.4106C24.3913 19.6079 25.0308 18.5921 25.3394 17.4758C26.4424 13.4848 26.4424 9.30402 25.3394 5.313C25.0307 4.19656 24.391 3.18058 23.4912 2.37795C22.5914 1.57532 21.467 1.01747 20.2427 0.766394L19.7738 0.669874ZM7.72551 5.20886C7.46845 5.1745 7.20634 5.22201 6.98278 5.34348H6.96341C6.44475 5.62288 5.97725 5.97467 5.57892 6.38869C5.24697 6.74048 5.06717 7.09608 5.02014 7.43898C4.99248 7.64218 5.01184 7.84792 5.07685 8.04223L5.10174 8.05493C5.47518 9.06204 5.96204 10.031 6.55678 10.9429C7.32365 12.2237 8.26735 13.4082 9.3645 14.4672L9.39769 14.5103L9.45025 14.5459L9.48206 14.5802L9.52079 14.6107C10.6781 15.6211 11.9711 16.4918 13.3686 17.2015C14.9661 18.0003 15.9357 18.3775 16.5179 18.535V18.5426C16.6881 18.5909 16.843 18.6124 16.9993 18.6124C17.4952 18.5788 17.9646 18.3937 18.3326 18.0867C18.7821 17.7209 19.1625 17.2904 19.4584 16.8116V16.8027C19.7365 16.3201 19.6424 15.8654 19.2413 15.5568C18.4356 14.9104 17.5644 14.3363 16.6397 13.8423C16.02 13.5337 15.3907 13.7204 15.1362 14.0328L14.5927 14.6627C14.3133 14.9752 13.807 14.932 13.807 14.932L13.7932 14.9396C10.0159 14.0544 9.00765 10.5429 9.00765 10.5429C9.00765 10.5429 8.96063 10.0653 9.31055 9.8215L9.99104 9.31858C10.3175 9.07474 10.5443 8.49816 10.1944 7.9292C9.65994 7.07926 9.03592 6.27956 8.33131 5.5416C8.17763 5.36792 7.96211 5.24963 7.72274 5.20759L7.72551 5.20886ZM14.1072 3.68231C13.9238 3.68231 13.7479 3.74922 13.6182 3.8683C13.4885 3.98739 13.4156 4.1489 13.4156 4.31732C13.4156 4.48573 13.4885 4.64724 13.6182 4.76633C13.7479 4.88541 13.9238 4.95232 14.1072 4.95232C15.8568 4.95232 17.3091 5.47683 18.4585 6.48267C19.049 7.03258 19.5096 7.68409 19.8111 8.39783C20.114 9.11284 20.2523 9.87611 20.2164 10.6406C20.2126 10.724 20.2267 10.8073 20.2579 10.8857C20.2891 10.9641 20.3369 11.036 20.3984 11.0975C20.5226 11.2216 20.6955 11.2952 20.8789 11.3023C21.0623 11.3094 21.2413 11.2493 21.3764 11.1352C21.5115 11.0211 21.5918 10.8624 21.5995 10.694C21.6424 9.75353 21.4724 8.81513 21.1002 7.93809C20.7264 7.05688 20.1596 6.25549 19.4349 5.58351L19.4211 5.57081C17.9951 4.31986 16.1902 3.68231 14.1072 3.68231ZM14.0602 5.7702C13.8767 5.7702 13.7008 5.8371 13.5712 5.95618C13.4415 6.07527 13.3686 6.23678 13.3686 6.4052C13.3686 6.57361 13.4415 6.73512 13.5712 6.85421C13.7008 6.97329 13.8767 7.0402 14.0602 7.0402H14.0837C15.3451 7.12275 16.2635 7.50883 16.9066 8.14256C17.5663 8.79534 17.908 9.60687 17.8817 10.6102C17.8775 10.7786 17.9463 10.9416 18.073 11.0635C18.1997 11.1853 18.3739 11.2559 18.5573 11.2598C18.7408 11.2636 18.9183 11.2005 19.051 11.0841C19.1837 10.9678 19.2606 10.8078 19.2648 10.6394C19.298 9.32239 18.836 8.18574 17.9204 7.27896V7.27642C16.9841 6.3544 15.6991 5.86672 14.1528 5.77147L14.1293 5.76893L14.0602 5.7702ZM14.0339 7.89745C13.9413 7.88995 13.8481 7.89965 13.7597 7.92597C13.6713 7.9523 13.5896 7.9947 13.5195 8.05066C13.4494 8.10661 13.3922 8.17497 13.3515 8.25165C13.3108 8.32833 13.2873 8.41175 13.2825 8.49695C13.2776 8.58214 13.2916 8.66736 13.3234 8.74751C13.3552 8.82766 13.4043 8.9011 13.4677 8.96344C13.5311 9.02579 13.6076 9.07576 13.6925 9.11037C13.7774 9.14499 13.8691 9.16353 13.962 9.16491C14.5401 9.19285 14.9094 9.35287 15.1418 9.5675C15.3755 9.7834 15.5498 10.1301 15.5816 10.6724C15.5833 10.7576 15.6037 10.8416 15.6415 10.9195C15.6794 10.9973 15.7339 11.0673 15.8018 11.1254C15.8698 11.1835 15.9498 11.2284 16.037 11.2575C16.1243 11.2866 16.217 11.2992 16.3097 11.2947C16.4024 11.2902 16.4931 11.2686 16.5765 11.2312C16.6599 11.1938 16.7343 11.1413 16.7952 11.077C16.856 11.0126 16.9022 10.9377 16.9308 10.8566C16.9595 10.7755 16.97 10.69 16.9619 10.6051C16.9177 9.84309 16.6576 9.16999 16.1251 8.67469C15.5899 8.17939 14.861 7.93809 14.0339 7.89745Z" fill="#6F3FAA"/>
</svg>
