<svg width="25" height="24" viewBox="0 0 25 24" fill="none" xmlns="http://www.w3.org/2000/svg">
<g clip-path="url(#clip0_1878_462)">
<path d="M0.678838 11.8563C0.678275 13.8728 1.20928 15.8417 2.21896 17.5771L0.582275 23.5066L6.69777 21.9156C8.38924 22.8292 10.2844 23.308 12.2103 23.3081H12.2153C18.573 23.3081 23.7483 18.1748 23.751 11.8653C23.7522 8.80792 22.5533 5.93295 20.3751 3.76997C18.1973 1.60718 15.3009 0.415458 12.2149 0.414062C5.85646 0.414062 0.681557 5.54709 0.678932 11.8563" fill="url(#paint0_linear_1878_462)"/>
<path d="M0.266938 11.8527C0.266282 13.9417 0.816313 15.981 1.862 17.7786L0.166626 23.9207L6.50141 22.2726C8.24684 23.2168 10.212 23.7147 12.2117 23.7154H12.2169C18.8026 23.7154 24.1638 18.3975 24.1666 11.8621C24.1678 8.69488 22.9258 5.71656 20.6698 3.47609C18.4135 1.23591 15.4135 0.00130233 12.2169 0C5.63 0 0.269563 5.31721 0.266938 11.8527ZM4.03953 17.469L3.803 17.0965C2.80869 15.5277 2.28388 13.7149 2.28463 11.8534C2.28669 6.4213 6.74206 2.00186 12.2206 2.00186C14.8738 2.00298 17.3671 3.02921 19.2425 4.89116C21.1178 6.7533 22.1497 9.22865 22.149 11.8614C22.1466 17.2935 17.6911 21.7135 12.2169 21.7135H12.2129C10.4305 21.7126 8.68231 21.2376 7.15775 20.34L6.79494 20.1265L3.03575 21.1045L4.03953 17.469Z" fill="url(#paint1_linear_1878_462)"/>
<path d="M9.23021 6.89746C9.00652 6.40416 8.77112 6.39421 8.5584 6.38556C8.38421 6.37811 8.18508 6.37867 7.98615 6.37867C7.78702 6.37867 7.46349 6.453 7.19002 6.74928C6.91627 7.04583 6.1449 7.76249 6.1449 9.22007C6.1449 10.6777 7.21487 12.0864 7.36402 12.2843C7.51337 12.4817 9.42962 15.5686 12.4645 16.7562C14.9867 17.743 15.5 17.5468 16.0474 17.4973C16.5949 17.448 17.8141 16.7808 18.0628 16.089C18.3117 15.3973 18.3117 14.8043 18.2371 14.6804C18.1624 14.557 17.9633 14.4829 17.6647 14.3348C17.366 14.1866 15.8981 13.4698 15.6244 13.371C15.3507 13.2722 15.1516 13.2229 14.9525 13.5195C14.7534 13.8157 14.1816 14.4829 14.0073 14.6804C13.8332 14.8785 13.659 14.9031 13.3605 14.755C13.0617 14.6063 12.1001 14.2938 10.9592 13.2846C10.0716 12.4993 9.47237 11.5296 9.29818 11.2329C9.12399 10.9367 9.27952 10.7762 9.42924 10.6285C9.5634 10.4958 9.72793 10.2826 9.87737 10.1096C10.0262 9.93663 10.0759 9.81318 10.1755 9.6156C10.2751 9.41783 10.2253 9.24481 10.1507 9.09663C10.0759 8.94844 9.49571 7.48323 9.23021 6.89746Z" fill="white"/>
</g>
<defs>
<linearGradient id="paint0_linear_1878_462" x1="1159.02" y1="2309.67" x2="1159.02" y2="0.414062" gradientUnits="userSpaceOnUse">
<stop stop-color="#1FAF38"/>
<stop offset="1" stop-color="#60D669"/>
</linearGradient>
<linearGradient id="paint1_linear_1878_462" x1="1200.17" y1="2392.07" x2="1200.17" y2="0" gradientUnits="userSpaceOnUse">
<stop stop-color="#F9F9F9"/>
<stop offset="1" stop-color="white"/>
</linearGradient>
<clipPath id="clip0_1878_462">
<rect width="24" height="24" fill="white" transform="translate(0.166626)"/>
</clipPath>
</defs>
</svg>
